<svg version="1.1" id="Layer_1" xmlns="http://www.w3.org/2000/svg" xmlns:xlink="http://www.w3.org/1999/xlink" x="0px" y="0px"
	 width="100%" viewBox="0 0 80 80" enable-background="new 0 0 80 80" xml:space="preserve">
<path fill="#000000" opacity="1.000000" stroke="none" 
	d="
M1.000000,26.000017 
	C1.000000,17.333357 1.000000,9.166693 1.000000,1.000021 
	C27.666655,1.000014 54.333309,1.000014 80.999969,1.000007 
	C80.999985,27.666649 80.999985,54.333298 80.999992,80.999954 
	C54.333355,80.999969 27.666714,80.999969 1.000035,80.999985 
	C1.000000,62.833336 1.000000,44.666676 1.000000,26.000017 
M33.995171,76.052284 
	C33.995171,76.052284 34.041286,76.079063 34.508553,75.875748 
	C34.709614,75.606453 34.910675,75.337158 35.660820,74.949570 
	C36.083393,74.636345 36.505966,74.323120 37.554771,73.886642 
	C38.074722,73.521866 38.594673,73.157089 39.639942,73.087570 
	C40.163361,73.688377 40.686775,74.289185 41.306953,75.530273 
	C42.238735,75.371727 43.170513,75.213181 44.610451,74.693008 
	C44.414948,73.793266 44.219444,72.893532 43.948326,71.317139 
	C43.294563,70.177551 42.640797,69.037956 41.893337,67.490295 
	C41.893337,67.490295 41.777111,67.088066 41.932743,66.409088 
	C41.997482,65.950424 42.062222,65.491768 42.782055,64.698608 
	C47.867527,63.749382 52.953003,62.800152 58.515778,61.765644 
	C58.801186,61.587608 59.006435,61.342445 59.579327,60.974663 
	C59.579327,60.974663 60.022007,60.887280 60.507793,60.815720 
	C60.811604,60.642056 61.001762,60.384464 61.022324,60.075142 
	C61.022324,60.075142 61.086559,60.081902 61.709637,59.750828 
	C65.827217,58.322502 67.565063,55.130142 68.668999,50.566349 
	C67.889549,44.249424 66.505363,38.265434 60.012718,34.128651 
	C59.953770,31.100798 59.894821,28.072943 59.954597,24.331745 
	C59.644398,23.530598 59.334198,22.729452 58.965382,21.399961 
	C58.915634,21.229895 58.865883,21.059828 58.927795,20.205845 
	C58.629608,19.422197 58.331421,18.638548 58.015434,17.127037 
	C57.038586,15.369982 56.061737,13.612926 55.201031,11.389322 
	C55.192875,10.900593 55.184723,10.411862 55.044140,9.288252 
	C54.379280,8.509867 53.714424,7.731481 52.734512,6.398729 
	C51.863682,5.889717 50.992855,5.380703 49.861828,4.374172 
	C49.612564,4.420089 49.363304,4.466005 49.114040,4.511922 
	C49.200726,4.857653 49.287411,5.203384 49.410141,5.564747 
	C49.410141,5.564747 49.385807,5.528850 49.036911,5.166403 
	C48.878033,5.220053 48.719151,5.273703 48.219650,5.212831 
	C48.219650,5.212831 47.876629,5.319947 47.612633,5.411119 
	C47.612633,5.411119 47.688923,5.679792 47.438087,5.126927 
	C46.945641,4.810198 46.453194,4.493469 45.505772,4.027649 
	C45.505772,4.027649 45.030289,3.971622 44.703949,3.295316 
	C43.109211,3.532030 41.514477,3.768744 39.327618,4.087597 
	C38.932137,4.125849 38.536659,4.164102 37.575111,4.075258 
	C37.333115,4.358736 37.091122,4.642213 36.413162,4.990881 
	C36.413162,4.990881 36.002316,5.150626 35.278347,5.028455 
	C30.356049,6.542144 28.228464,10.413231 26.283220,15.243299 
	C25.303005,19.139149 24.322788,23.034996 22.866932,27.284588 
	C22.626730,28.827318 22.386530,30.370047 22.022625,32.586384 
	C21.713448,33.642738 21.404270,34.699097 20.521399,36.055889 
	C19.969288,36.691151 19.417177,37.326412 18.343534,38.200397 
	C17.845924,38.776386 17.348312,39.352375 16.318712,40.233021 
	C16.078756,40.954063 15.838802,41.675102 15.338955,42.291340 
	C15.338955,42.291340 15.060491,42.367947 14.557076,42.215199 
	C14.103678,43.812347 13.650279,45.409492 13.068635,47.738766 
	C13.374934,48.843964 13.681233,49.949162 14.019931,51.702164 
	C14.080292,52.128727 14.140652,52.555286 14.371523,53.626125 
	C16.533737,55.760696 18.695950,57.895271 21.270260,60.705971 
	C22.850037,60.815212 24.429813,60.924458 26.138054,61.461281 
	C26.289225,61.727757 26.499182,61.934544 27.191254,62.723297 
	C28.439512,62.868282 29.687769,63.013268 31.479048,63.672920 
	C33.686714,64.445717 35.894386,65.218513 37.979836,66.540077 
	C37.940678,66.723343 37.901524,66.906616 37.331394,67.379333 
	C36.865547,68.013855 36.399696,68.648376 35.273762,69.121544 
	C33.217834,68.917091 31.008385,68.148071 29.145794,68.654572 
	C26.938452,69.254822 25.030012,70.954231 22.384033,72.066292 
	C21.886532,72.351303 21.389030,72.636322 20.453625,73.211128 
	C20.951271,73.846786 21.448917,74.482437 22.048632,75.895409 
	C25.394003,79.670364 29.181629,78.180504 33.475616,76.840744 
	C33.663776,76.568352 33.851940,76.295959 33.995171,76.052284 
z"/>
<path fill="#FBEE05" opacity="1.000000" stroke="none" 
	d="
M22.146328,31.912777 
	C22.386530,30.370047 22.626730,28.827318 23.445391,27.108088 
	C27.699245,24.201488 28.929148,19.084303 26.901308,14.959496 
	C28.228464,10.413231 30.356049,6.542144 35.909637,5.300479 
	C37.969044,7.394547 39.397156,9.216592 40.866089,11.264236 
	C40.906914,11.489837 40.854607,11.945380 40.605556,12.237416 
	C39.900726,14.742395 39.114983,16.945772 39.050510,19.170059 
	C38.850224,26.079744 38.923710,32.997364 38.477982,39.935486 
	C36.950848,40.028305 35.836708,40.097542 34.349846,40.144947 
	C32.985474,40.114624 31.993826,40.106129 30.757589,40.050930 
	C30.513000,40.004223 30.017693,39.952351 29.870741,39.723457 
	C29.214062,39.339886 28.704336,39.185211 27.930809,38.790192 
	C26.135271,37.979584 24.603535,37.409321 23.027607,36.643723 
	C22.983414,36.448383 22.865528,36.065575 22.909201,35.698055 
	C22.684025,34.191284 22.415174,33.052029 22.146328,31.912777 
z"/>
<path fill="#355D43" opacity="1.000000" stroke="none" 
	d="
M58.038475,61.850922 
	C52.953003,62.800152 47.867527,63.749382 42.220009,65.001099 
	C41.423073,65.575974 41.188187,65.848351 40.597054,66.097870 
	C39.527889,66.047112 38.814972,66.019211 38.102055,65.991310 
	C35.894386,65.218513 33.686714,64.445717 31.224852,63.057564 
	C30.980749,61.964928 30.990845,61.487656 31.002300,60.677086 
	C31.006889,59.899681 31.010118,59.455574 31.391499,59.006119 
	C32.861950,58.013264 33.954250,57.025757 35.352337,56.166363 
	C37.437000,56.196320 39.215881,56.098164 41.012981,56.262794 
	C41.044563,56.700684 41.057919,56.875786 41.114410,57.332153 
	C42.117229,57.415070 43.076908,57.216717 44.014984,57.012165 
	C43.993378,57.005962 44.019596,57.042660 44.305862,56.992744 
	C45.061211,56.629856 45.530293,56.316879 46.299007,55.876068 
	C49.719650,55.061485 53.642036,58.666729 56.308762,54.162159 
	C58.095230,56.250511 59.590893,58.166206 61.086559,60.081902 
	C61.086559,60.081902 61.022324,60.075142 60.845947,60.162392 
	C60.409515,60.417297 60.193661,60.629845 60.022007,60.887280 
	C60.022007,60.887280 59.579327,60.974663 59.144272,61.098873 
	C58.441456,61.385174 58.217876,61.594452 58.038475,61.850922 
z"/>
<path fill="#386748" opacity="1.000000" stroke="none" 
	d="
M60.118595,35.035603 
	C66.505363,38.265434 67.889549,44.249424 68.088150,50.742371 
	C66.314445,51.050194 65.114143,51.136131 63.931011,51.327976 
	C62.941311,51.488461 61.971687,51.772781 61.206215,51.806358 
	C61.616413,51.075787 61.813572,50.541122 62.146114,49.744923 
	C62.449352,47.451714 62.617214,45.420040 62.785313,43.385433 
	C61.502834,42.899731 60.238274,42.420818 58.986931,41.544548 
	C59.291306,39.069939 59.582462,36.992683 59.956345,34.901688 
	C60.039066,34.887947 60.118595,35.035603 60.118595,35.035603 
z"/>
<path fill="#2C764B" opacity="1.000000" stroke="none" 
	d="
M35.046551,56.038250 
	C33.954250,57.025757 32.861950,58.013264 31.092430,58.970222 
	C29.602692,59.610912 28.790174,60.282146 27.808683,61.174698 
	C27.349113,61.624557 27.058519,61.853100 26.767925,62.081642 
	C26.499182,61.934544 26.289225,61.727757 26.068108,60.995087 
	C25.992157,60.360935 25.986156,60.192982 25.981997,59.644279 
	C25.319384,57.177334 24.654930,55.091137 24.252598,52.942829 
	C24.342566,51.254238 24.170412,49.627754 23.999130,48.000637 
	C24.000000,48.000000 24.001247,47.998257 24.346661,48.018497 
	C26.876453,48.889542 29.060833,49.740349 31.391535,50.648144 
	C31.157774,51.522423 30.789970,52.898037 30.296656,54.743073 
	C32.029160,55.215485 33.537857,55.626865 35.046551,56.038250 
z"/>
<path fill="#B24C3B" opacity="1.000000" stroke="none" 
	d="
M45.030289,3.971622 
	C45.030289,3.971622 45.505772,4.027649 45.741882,4.404354 
	C45.995872,5.183526 46.013756,5.585994 46.027313,6.457829 
	C45.998505,17.925947 45.974026,28.924698 45.709778,39.936920 
	C45.470009,39.950397 44.992085,39.895393 44.994724,39.656548 
	C44.997364,39.417698 44.981365,38.940243 44.979996,38.481857 
	C44.973045,33.687344 44.967461,29.351213 44.958725,24.675686 
	C44.321705,23.578434 43.687836,22.820578 43.037861,21.653881 
	C43.001705,20.153784 42.981651,19.062531 42.971191,17.547577 
	C42.973412,15.425333 42.966034,13.726786 42.971020,11.593591 
	C42.975353,9.141259 42.967327,7.123575 43.174934,4.976137 
	C43.634090,4.617374 43.877621,4.388364 44.347496,4.107862 
	C44.573837,4.056371 45.030289,3.971622 45.030289,3.971622 
z"/>
<path fill="#9D4C3A" opacity="1.000000" stroke="none" 
	d="
M55.176567,9.923133 
	C55.184723,10.411862 55.192875,10.900593 55.083626,11.971491 
	C54.959511,13.505313 54.669716,14.568028 54.992382,15.390457 
	C56.974815,20.443403 56.218815,25.259293 53.684029,30.002874 
	C52.903160,29.998476 52.457211,29.995674 52.008461,29.524818 
	C52.326611,22.366943 52.647560,15.677124 53.193352,9.200386 
	C54.004314,9.583355 54.590443,9.753244 55.176567,9.923133 
z"/>
<path fill="#3A5741" opacity="1.000000" stroke="none" 
	d="
M60.993176,52.002266 
	C61.971687,51.772781 62.941311,51.488461 63.931011,51.327976 
	C65.114143,51.136131 66.314445,51.050194 67.823730,50.997124 
	C67.565063,55.130142 65.827217,58.322502 61.398098,59.916367 
	C59.590893,58.166206 58.095230,56.250511 56.298183,53.917061 
	C55.996803,53.499310 55.983158,53.008614 56.070984,52.704712 
	C57.770267,52.267960 59.381721,52.135113 60.993176,52.002266 
z"/>
<path fill="#2B8F58" opacity="1.000000" stroke="none" 
	d="
M22.992025,72.177261 
	C25.030012,70.954231 26.938452,69.254822 29.145794,68.654572 
	C31.008385,68.148071 33.217834,68.917091 35.794418,69.399490 
	C36.830261,69.826218 37.345448,69.975006 37.909782,70.309471 
	C37.958931,70.495148 38.066250,70.864006 38.049080,70.910820 
	C38.031910,70.957634 37.978645,71.041946 37.772049,71.023422 
	C37.565449,71.004890 37.150845,71.015930 36.886017,71.172180 
	C36.391842,71.885948 36.162491,72.443481 35.549957,72.994987 
	C33.111538,73.328011 31.056305,73.667061 28.784286,74.222794 
	C27.321972,75.049202 26.076443,75.658920 24.313555,76.521912 
	C23.791830,74.806694 23.391928,73.491974 22.992025,72.177261 
z"/>
<path fill="#75493D" opacity="1.000000" stroke="none" 
	d="
M54.018948,30.004471 
	C56.218815,25.259293 56.974815,20.443403 54.992382,15.390457 
	C54.669716,14.568028 54.959511,13.505313 55.025551,12.204766 
	C56.061737,13.612926 57.038586,15.369982 58.007336,17.816465 
	C58.271534,19.300516 58.543831,20.095139 58.816132,20.889759 
	C58.865883,21.059828 58.915634,21.229895 58.972614,22.014595 
	C58.949135,23.096291 58.918427,23.563351 58.711464,24.162750 
	C58.314907,24.496744 58.136944,24.730625 58.000290,25.240406 
	C57.999256,25.484077 58.000690,25.971424 57.728378,26.276779 
	C57.293251,29.725410 57.130440,32.868687 56.602272,36.010063 
	C55.507641,36.009785 54.778358,36.011402 54.039238,35.583908 
	C54.025909,33.438023 54.022427,31.721247 54.018948,30.004471 
z"/>
<path fill="#366F49" opacity="1.000000" stroke="none" 
	d="
M23.990475,53.004940 
	C24.654930,55.091137 25.319384,57.177334 25.660221,59.639149 
	C24.907118,60.000126 24.477633,59.985485 24.113178,59.757561 
	C24.066172,59.195518 23.954136,58.846764 23.842098,58.498005 
	C23.558119,58.963104 23.274139,59.428204 22.634809,59.912830 
	C21.805693,59.964851 21.331928,59.997345 20.858164,60.029839 
	C18.695950,57.895271 16.533737,55.760696 14.506684,53.294151 
	C14.641846,52.962181 15.082839,52.940994 15.389875,53.101921 
	C17.119446,52.832779 18.541979,52.402714 20.301733,51.979065 
	C21.088045,51.987305 21.537140,51.989128 22.184025,52.203033 
	C22.918036,52.611721 23.454254,52.808331 23.990475,53.004940 
z"/>
<path fill="#954A35" opacity="1.000000" stroke="none" 
	d="
M45.949547,39.923447 
	C45.974026,28.924698 45.998505,17.925947 46.444710,6.398170 
	C47.140594,5.806026 47.414757,5.742909 47.688923,5.679792 
	C47.688923,5.679792 47.612633,5.411119 47.863956,5.689582 
	C48.402031,6.311850 48.688786,6.655654 48.973953,7.249961 
	C48.964008,7.667262 48.955654,7.834059 48.701668,8.002789 
	C48.456036,8.004722 47.963196,8.016042 47.717155,8.347643 
	C47.333492,19.089943 47.195862,29.500641 46.781105,39.918205 
	C46.319168,39.924530 46.134357,39.923988 45.949547,39.923447 
z"/>
<path fill="#FAEE0E" opacity="1.000000" stroke="none" 
	d="
M26.592264,15.101398 
	C28.929148,19.084303 27.699245,24.201488 23.683210,26.931217 
	C24.322788,23.034996 25.303005,19.139149 26.592264,15.101398 
z"/>
<path fill="#2C965B" opacity="1.000000" stroke="none" 
	d="
M22.688030,72.121780 
	C23.391928,73.491974 23.791830,74.806694 24.313555,76.521912 
	C26.076443,75.658920 27.321972,75.049202 29.126652,74.230179 
	C30.788309,74.673012 31.890812,75.325134 32.985962,76.185974 
	C32.978611,76.394684 32.959068,76.811905 32.959068,76.811905 
	C29.181629,78.180504 25.394003,79.670364 21.965828,75.191299 
	C21.552526,73.965233 21.222029,73.443283 20.891531,72.921333 
	C21.389030,72.636322 21.886532,72.351303 22.688030,72.121780 
z"/>
<path fill="#269053" opacity="1.000000" stroke="none" 
	d="
M38.040947,66.265694 
	C38.814972,66.019211 39.527889,66.047112 40.708099,66.278885 
	C41.341919,66.718353 41.542492,66.920128 41.777111,67.088066 
	C41.777111,67.088066 41.893337,67.490295 41.937355,68.084007 
	C42.307442,70.127960 42.633514,71.578209 42.849945,73.272659 
	C42.476604,73.984573 42.212906,74.452278 41.764275,74.916870 
	C41.579346,74.913765 41.210194,74.889992 41.210194,74.889992 
	C40.686775,74.289185 40.163361,73.688377 39.268997,72.700485 
	C38.591579,71.889580 38.285114,71.465767 37.978645,71.041946 
	C37.978645,71.041946 38.031910,70.957634 38.264885,70.741814 
	C38.365524,69.715691 38.233181,68.905380 38.024635,67.847717 
	C37.919743,67.430191 37.891052,67.260040 37.862366,67.089882 
	C37.901524,66.906616 37.940678,66.723343 38.040947,66.265694 
z"/>
<path fill="#EDE01B" opacity="1.000000" stroke="none" 
	d="
M40.825268,11.038636 
	C39.397156,9.216592 37.969044,7.394547 36.271622,5.361565 
	C36.002316,5.150626 36.413162,4.990881 36.879086,4.906506 
	C37.610397,4.615538 37.875790,4.408946 38.141178,4.202354 
	C38.536659,4.164102 38.932137,4.125849 39.776775,4.142154 
	C40.225933,4.196712 40.577633,4.276756 40.673500,4.686964 
	C40.787998,7.077660 40.806633,9.058148 40.825268,11.038636 
z"/>
<path fill="#337750" opacity="1.000000" stroke="none" 
	d="
M15.082840,52.940994 
	C15.082839,52.940994 14.641846,52.962181 14.421429,52.972015 
	C14.140652,52.555286 14.080292,52.128727 14.047662,51.061199 
	C13.782556,49.282372 13.489718,48.144505 13.196880,47.006641 
	C13.650279,45.409492 14.103678,43.812347 14.907065,42.596638 
	C15.504819,43.315952 15.752583,43.653831 15.994038,44.233173 
	C15.987727,44.474640 15.985583,44.957516 15.981194,44.972706 
	C15.976804,44.987896 15.960498,45.013351 15.829706,45.115463 
	C15.537793,45.551682 15.622879,45.830318 15.966219,46.406868 
	C16.317451,47.836643 16.656637,48.913036 16.998589,50.239414 
	C17.002924,50.656063 17.004492,50.822723 16.710117,51.059715 
	C15.970396,51.733696 15.526618,52.337345 15.082840,52.940994 
z"/>
<path fill="#278A4C" opacity="1.000000" stroke="none" 
	d="
M32.993317,75.977264 
	C31.890812,75.325134 30.788309,74.673012 29.343437,74.013489 
	C31.056305,73.667061 33.111538,73.328011 35.768723,73.018471 
	C36.370670,73.047974 36.806606,73.096466 36.857735,73.322067 
	C36.908867,73.547661 36.928535,74.009895 36.928535,74.009895 
	C36.505966,74.323120 36.083393,74.636345 35.211624,74.909340 
	C34.522053,75.272430 34.281670,75.675751 34.041290,76.079063 
	C34.041286,76.079063 33.995171,76.052284 33.755943,76.023682 
	C33.342251,75.989136 33.167782,75.983200 32.993317,75.977264 
z"/>
<path fill="#30764B" opacity="1.000000" stroke="none" 
	d="
M16.850700,39.928364 
	C17.348312,39.352375 17.845924,38.776386 18.962141,38.093925 
	C20.058178,37.990108 20.535606,37.992756 21.021599,38.243118 
	C21.030163,38.490826 21.055237,38.985794 21.032444,39.361389 
	C21.006531,40.489029 21.003412,41.241074 20.987091,42.254967 
	C20.963966,42.691319 20.954041,42.865826 20.545046,43.031944 
	C19.078432,43.018024 18.010887,43.012493 17.128010,42.776611 
	C17.158688,41.673630 17.004696,40.800995 16.850700,39.928364 
z"/>
<path fill="#D44735" opacity="1.000000" stroke="none" 
	d="
M48.947304,8.000855 
	C48.955654,7.834059 48.964008,7.667262 48.909264,6.822250 
	C48.750866,5.871808 48.655567,5.599580 48.560268,5.327353 
	C48.719151,5.273703 48.878033,5.220053 49.360916,5.801924 
	C49.833035,8.635492 49.981152,10.833540 50.093918,13.442940 
	C49.984974,15.230542 49.911385,16.606792 49.667942,17.982224 
	C49.498089,17.981403 49.158440,17.975063 49.116943,17.552689 
	C48.995739,15.437864 48.916035,13.745413 48.884731,11.649818 
	C48.937855,10.164736 48.942581,9.082796 48.947304,8.000855 
z"/>
<path fill="#8A4640" opacity="1.000000" stroke="none" 
	d="
M50.129265,13.031589 
	C49.981152,10.833540 49.833035,8.635492 49.535362,5.983147 
	C49.385807,5.528850 49.410141,5.564747 49.595242,5.405394 
	C49.894238,5.121257 50.008129,4.996474 50.122025,4.871690 
	C50.992855,5.380703 51.863682,5.889717 52.802666,6.774087 
	C52.870819,7.149444 52.692955,7.346559 52.360771,7.396945 
	C51.654232,9.310650 51.279881,11.173967 50.712097,13.029565 
	C50.518669,13.021845 50.129265,13.031589 50.129265,13.031589 
z"/>
<path fill="#A35F58" opacity="1.000000" stroke="none" 
	d="
M59.835873,25.045090 
	C59.894821,28.072943 59.953770,31.100798 60.065659,34.582127 
	C60.118595,35.035603 60.039066,34.887947 59.743103,34.921669 
	C59.447136,34.955391 59.018044,34.965645 59.015736,34.514648 
	C59.037231,31.039301 59.061035,28.014952 59.272545,25.004887 
	C59.460258,25.019171 59.835873,25.045090 59.835873,25.045090 
z"/>
<path fill="#3A6C4B" opacity="1.000000" stroke="none" 
	d="
M42.959583,73.028450 
	C42.633514,71.578209 42.307442,70.127960 41.984200,68.288040 
	C42.640797,69.037956 43.294563,70.177551 43.847122,71.863876 
	C43.483807,72.616562 43.221695,72.822502 42.959583,73.028450 
z"/>
<path fill="#385A42" opacity="1.000000" stroke="none" 
	d="
M26.979588,62.402466 
	C27.058519,61.853100 27.349113,61.624557 28.186840,61.190262 
	C29.489626,60.993134 30.245281,61.001759 31.000938,61.010380 
	C30.990845,61.487656 30.980749,61.964928 30.953342,62.800232 
	C29.687769,63.013268 28.439512,62.868282 26.979588,62.402466 
z"/>
<path fill="#378558" opacity="1.000000" stroke="none" 
	d="
M16.584707,40.080692 
	C17.004696,40.800995 17.158688,41.673630 16.904766,42.783733 
	C16.496851,43.021206 16.049698,43.049706 15.932339,42.889519 
	C15.814980,42.729336 15.598848,42.396145 15.598848,42.396145 
	C15.838802,41.675102 16.078756,40.954063 16.584707,40.080692 
z"/>
<path fill="#447D60" opacity="1.000000" stroke="none" 
	d="
M13.132758,47.372704 
	C13.489718,48.144505 13.782556,49.282372 14.031462,50.737297 
	C13.681233,49.949162 13.374934,48.843964 13.132758,47.372704 
z"/>
<path fill="#3A895E" opacity="1.000000" stroke="none" 
	d="
M42.849945,73.272659 
	C43.221695,72.822502 43.483807,72.616562 43.884930,72.202202 
	C44.219444,72.893532 44.414948,73.793266 43.997509,74.856445 
	C42.906113,74.986588 42.427662,74.953285 41.949203,74.919983 
	C42.212906,74.452278 42.476604,73.984573 42.849945,73.272659 
z"/>
<path fill="#AB9D46" opacity="1.000000" stroke="none" 
	d="
M22.084476,32.249580 
	C22.415174,33.052029 22.684025,34.191284 22.743073,35.681202 
	C22.533274,36.031868 22.198135,36.012039 21.913977,35.961967 
	C21.439074,35.923820 21.248327,35.935745 21.094585,35.905010 
	C21.131588,35.862347 21.095093,35.755451 21.095093,35.755451 
	C21.404270,34.699097 21.713448,33.642738 22.084476,32.249580 
z"/>
<path fill="#9B9387" opacity="1.000000" stroke="none" 
	d="
M40.577633,4.276756 
	C40.577633,4.276756 40.225933,4.196712 40.072838,4.101085 
	C41.514477,3.768744 43.109211,3.532030 44.867119,3.633469 
	C45.030289,3.971622 44.573837,4.056371 43.980236,4.054957 
	C42.895164,4.072136 42.403690,4.090727 41.576321,4.133231 
	C41.019493,4.197014 40.798561,4.236885 40.577633,4.276756 
z"/>
<path fill="#4F5C55" opacity="1.000000" stroke="none" 
	d="
M21.064213,60.367905 
	C21.331928,59.997345 21.805693,59.964851 22.898535,59.943848 
	C23.694458,59.960503 23.871304,59.965675 24.048149,59.970844 
	C24.477633,59.985485 24.907118,60.000126 25.658379,60.019897 
	C25.986156,60.192982 25.992157,60.360935 26.003876,60.781296 
	C24.429813,60.924458 22.850037,60.815212 21.064213,60.367905 
z"/>
<path fill="#8A4640" opacity="1.000000" stroke="none" 
	d="
M55.110352,9.605692 
	C54.590443,9.753244 54.004314,9.583355 53.173798,8.921524 
	C52.850586,8.068573 52.771770,7.707566 52.692955,7.346559 
	C52.692955,7.346559 52.870819,7.149444 52.960190,7.051270 
	C53.714424,7.731481 54.379280,8.509867 55.110352,9.605692 
z"/>
<path fill="#909F95" opacity="1.000000" stroke="none" 
	d="
M37.596878,67.234604 
	C37.891052,67.260040 37.919743,67.430191 37.982643,68.183807 
	C37.964779,69.219444 37.912708,69.671623 37.860634,70.123795 
	C37.345448,69.975006 36.830261,69.826218 36.124462,69.480164 
	C36.399696,68.648376 36.865547,68.013855 37.596878,67.234604 
z"/>
<path fill="#A9ABA6" opacity="1.000000" stroke="none" 
	d="
M37.241653,73.948273 
	C36.928535,74.009895 36.908867,73.547661 36.942024,72.979034 
	C37.033741,71.945587 37.092293,71.480759 37.150845,71.015930 
	C37.150845,71.015930 37.565449,71.004890 37.772049,71.023422 
	C38.285114,71.465767 38.591579,71.889580 39.006336,72.552856 
	C38.594673,73.157089 38.074722,73.521866 37.241653,73.948273 
z"/>
<path fill="#8D6A5C" opacity="1.000000" stroke="none" 
	d="
M58.871964,20.547802 
	C58.543831,20.095139 58.271534,19.300516 58.016235,18.180397 
	C58.331421,18.638548 58.629608,19.422197 58.871964,20.547802 
z"/>
<path fill="#918987" opacity="1.000000" stroke="none" 
	d="
M59.895233,24.688417 
	C59.835873,25.045090 59.460258,25.019171 59.237244,24.992382 
	C59.014233,24.965593 58.953125,25.006199 58.956104,24.760956 
	C58.959084,24.515713 58.887714,24.030411 58.887714,24.030411 
	C58.918427,23.563351 58.949135,23.096291 59.001923,22.278767 
	C59.334198,22.729452 59.644398,23.530598 59.895233,24.688417 
z"/>
<path fill="#3E7B58" opacity="1.000000" stroke="none" 
	d="
M20.672577,73.066231 
	C21.222029,73.443283 21.552526,73.965233 21.914795,74.802643 
	C21.448917,74.482437 20.951271,73.846786 20.672577,73.066231 
z"/>
<path fill="#478862" opacity="1.000000" stroke="none" 
	d="
M21.013037,37.995407 
	C20.535606,37.992756 20.058178,37.990108 19.222908,37.974564 
	C19.417177,37.326412 19.969288,36.691151 20.808247,35.905670 
	C21.095093,35.755451 21.131588,35.862347 21.078077,36.246063 
	C21.020723,37.084988 21.016880,37.540199 21.013037,37.995407 
z"/>
<path fill="#357751" opacity="1.000000" stroke="none" 
	d="
M41.764275,74.916870 
	C42.427662,74.953285 42.906113,74.986588 43.743431,75.037262 
	C43.170513,75.213181 42.238735,75.371727 41.258575,75.210129 
	C41.210194,74.889992 41.579346,74.913765 41.764275,74.916870 
z"/>
<path fill="#93513E" opacity="1.000000" stroke="none" 
	d="
M47.563507,5.403360 
	C47.414757,5.742909 47.140594,5.806026 46.449036,5.928802 
	C46.013756,5.585994 45.995872,5.183526 45.969368,4.478899 
	C46.453194,4.493469 46.945641,4.810198 47.563507,5.403360 
z"/>
<path fill="#3A6C4B" opacity="1.000000" stroke="none" 
	d="
M41.854927,66.748581 
	C41.542492,66.920128 41.341919,66.718353 41.064346,66.301743 
	C41.188187,65.848351 41.423073,65.575974 41.892464,65.168350 
	C42.062222,65.491768 41.997482,65.950424 41.854927,66.748581 
z"/>
<path fill="#406E51" opacity="1.000000" stroke="none" 
	d="
M34.274921,75.977402 
	C34.281670,75.675751 34.522053,75.272430 34.937084,74.968491 
	C34.910675,75.337158 34.709614,75.606453 34.274921,75.977402 
z"/>
<path fill="#C3BB3C" opacity="1.000000" stroke="none" 
	d="
M37.858147,4.138806 
	C37.875790,4.408946 37.610397,4.615538 37.097069,4.873911 
	C37.091122,4.642213 37.333115,4.358736 37.858147,4.138806 
z"/>
<path fill="#358058" opacity="1.000000" stroke="none" 
	d="
M32.985962,76.185974 
	C33.167782,75.983200 33.342251,75.989136 33.778412,76.009323 
	C33.851940,76.295959 33.663776,76.568352 33.217342,76.826324 
	C32.959068,76.811905 32.978611,76.394684 32.985962,76.185974 
z"/>
<path fill="#93513E" opacity="1.000000" stroke="none" 
	d="
M49.577217,5.397578 
	C49.287411,5.203384 49.200726,4.857653 49.114040,4.511922 
	C49.363304,4.466005 49.612564,4.420089 49.991928,4.622931 
	C50.008129,4.996474 49.894238,5.121257 49.577217,5.397578 
z"/>
<path fill="#93513E" opacity="1.000000" stroke="none" 
	d="
M48.389961,5.270092 
	C48.655567,5.599580 48.750866,5.871808 48.910854,6.571747 
	C48.688786,6.655654 48.402031,6.311850 47.995956,5.643996 
	C47.876629,5.319947 48.219650,5.212831 48.389961,5.270092 
z"/>
<path fill="#3A5741" opacity="1.000000" stroke="none" 
	d="
M58.277126,61.808281 
	C58.217876,61.594452 58.441456,61.385174 58.920368,61.126617 
	C59.006435,61.342445 58.801186,61.587608 58.277126,61.808281 
z"/>
<path fill="#3A5741" opacity="1.000000" stroke="none" 
	d="
M60.264900,60.851501 
	C60.193661,60.629845 60.409515,60.417297 60.873917,60.146301 
	C61.001762,60.384464 60.811604,60.642056 60.264900,60.851501 
z"/>
<path fill="#378558" opacity="1.000000" stroke="none" 
	d="
M16.000347,43.991707 
	C15.752583,43.653831 15.504819,43.315952 15.158772,42.673012 
	C15.060491,42.367947 15.338955,42.291340 15.468902,42.343742 
	C15.598848,42.396145 15.814980,42.729336 15.916817,43.124664 
	C16.018654,43.519989 16.000347,43.991707 16.000347,43.991707 
z"/>
<path fill="#DED81E" opacity="1.000000" stroke="none" 
	d="
M38.890976,39.911907 
	C38.923710,32.997364 38.850224,26.079744 39.050510,19.170059 
	C39.114983,16.945772 39.900726,14.742395 40.660202,12.576066 
	C41.016872,13.076718 41.069851,13.530757 41.079086,14.412548 
	C41.058102,16.552031 41.080860,18.263760 41.079163,20.444794 
	C40.903507,27.256948 40.752308,33.599796 40.316299,39.958866 
	C39.651318,39.954029 39.271149,39.932968 38.890976,39.911907 
z"/>
<path fill="#C05246" opacity="1.000000" stroke="none" 
	d="
M28.194611,39.030537 
	C28.704336,39.185211 29.214062,39.339886 29.861233,40.065102 
	C29.994236,41.089622 29.989798,41.543602 29.734940,42.003555 
	C29.317324,42.013557 29.150126,42.017590 28.724833,42.266212 
	C28.320162,43.204964 28.173590,43.899124 27.742857,44.535160 
	C27.293005,44.377365 27.127314,44.277695 26.968575,43.792255 
	C25.968182,41.872356 24.960836,40.338226 24.373823,38.847740 
	C25.927641,38.937767 27.061127,38.984154 28.194611,39.030537 
z"/>
<path fill="#B8522F" opacity="1.000000" stroke="none" 
	d="
M31.002178,40.097637 
	C31.993826,40.106129 32.985474,40.114624 34.412643,40.356468 
	C34.848171,40.589817 34.964375,41.015289 34.994186,41.235924 
	C35.024002,41.456558 35.040585,41.901276 35.025829,42.179001 
	C35.003029,42.641960 34.994980,42.827194 34.591301,43.010536 
	C33.140659,43.002357 32.085648,42.996071 31.016426,42.753937 
	C31.002222,42.518093 30.971472,42.046551 30.983074,41.721027 
	C30.997177,40.962883 30.999678,40.530258 31.002178,40.097637 
z"/>
<path fill="#9C9137" opacity="1.000000" stroke="none" 
	d="
M41.122829,13.984795 
	C41.069851,13.530757 41.016872,13.076718 40.909248,12.284030 
	C40.854607,11.945380 40.906914,11.489837 40.866089,11.264236 
	C40.806633,9.058148 40.787998,7.077660 40.673500,4.686964 
	C40.798561,4.236885 41.019493,4.197014 41.608490,4.379715 
	C41.976555,4.602287 42.068798,5.091938 42.048573,5.522715 
	C42.055916,7.973740 42.083485,9.993990 42.066391,12.347420 
	C41.972347,13.126068 41.922970,13.571537 41.686352,14.008203 
	C41.499115,13.999400 41.122829,13.984795 41.122829,13.984795 
z"/>
<path fill="#D4DA56" opacity="1.000000" stroke="none" 
	d="
M34.964375,41.015289 
	C34.964375,41.015289 34.848171,40.589817 34.785370,40.378296 
	C35.836708,40.097542 36.950848,40.028305 38.477982,39.935486 
	C39.271149,39.932968 39.651318,39.954029 40.399940,40.132523 
	C40.768394,40.289963 40.917515,40.643475 40.497917,40.728256 
	C38.373669,40.880459 36.669022,40.947872 34.964375,41.015289 
z"/>
<path fill="#A07237" opacity="1.000000" stroke="none" 
	d="
M27.930809,38.790192 
	C27.061127,38.984154 25.927641,38.937767 24.244381,38.671509 
	C23.486622,38.234676 23.249155,38.057133 22.993042,37.648056 
	C23.026520,37.197758 23.049160,37.018406 23.071798,36.839058 
	C24.603535,37.409321 26.135271,37.979584 27.930809,38.790192 
z"/>
<path fill="#996155" opacity="1.000000" stroke="none" 
	d="
M23.027607,36.643723 
	C23.049160,37.018406 23.026520,37.197758 22.994593,38.057201 
	C22.974621,39.819050 22.963938,40.900806 22.726658,41.988853 
	C22.500061,41.995144 22.047504,41.968021 22.036648,41.589844 
	C21.949806,40.458595 21.873821,39.705524 21.871672,38.587841 
	C22.029716,37.486164 22.113926,36.749104 22.198135,36.012039 
	C22.198135,36.012039 22.533274,36.031868 22.699402,36.048721 
	C22.865528,36.065575 22.983414,36.448383 23.027607,36.643723 
z"/>
<path fill="#AF4F38" opacity="1.000000" stroke="none" 
	d="
M30.757589,40.050930 
	C30.999678,40.530258 30.997177,40.962883 30.747871,41.707321 
	C30.501064,42.019135 30.029020,42.033718 30.019283,42.023823 
	C30.009546,42.013927 29.985359,41.997578 29.985359,41.997578 
	C29.989798,41.543602 29.994236,41.089622 30.008183,40.293999 
	C30.017693,39.952351 30.513000,40.004223 30.757589,40.050930 
z"/>
<path fill="#30794A" opacity="1.000000" stroke="none" 
	d="
M26.961620,44.178024 
	C27.127314,44.277695 27.293005,44.377365 27.889050,44.637634 
	C28.549381,44.894840 28.788433,44.929955 29.271481,44.928673 
	C29.506409,44.953773 29.976406,44.904930 30.238804,44.938828 
	C30.676460,44.954807 30.851719,44.936890 31.371086,44.978642 
	C32.830677,45.274033 33.946167,45.509750 35.255093,45.809494 
	C35.448532,45.873520 35.854736,45.839664 36.173790,45.860855 
	C36.705486,45.870926 36.918125,45.859802 37.338604,45.870850 
	C37.546444,45.893017 37.956688,45.812637 38.296494,45.881611 
	C39.091103,46.035595 39.545914,46.120605 40.132492,46.525017 
	C41.925922,47.504623 43.587589,48.164829 44.925350,48.696342 
	C44.592796,50.994045 44.302837,52.997410 43.739555,54.885582 
	C42.642403,55.180264 41.818581,55.590134 40.994759,56.000004 
	C39.215881,56.098164 37.437000,56.196320 35.352337,56.166363 
	C33.537857,55.626865 32.029160,55.215485 30.296656,54.743073 
	C30.789970,52.898037 31.157774,51.522423 31.391535,50.648144 
	C29.060833,49.740349 26.876453,48.889542 24.303921,47.933620 
	C23.915768,47.828503 23.694305,47.813557 23.694305,47.813557 
	C23.694305,47.813557 23.998257,48.001274 23.998257,48.001274 
	C24.170412,49.627754 24.342566,51.254238 24.252598,52.942829 
	C23.454254,52.808331 22.918036,52.611721 21.985661,51.991867 
	C21.049229,51.377201 20.508953,51.185772 19.970665,50.751503 
	C19.972656,50.508659 19.990780,50.023300 19.991943,49.762169 
	C19.991293,49.327152 19.989481,49.153271 20.101833,48.723858 
	C20.480902,47.975636 20.745808,47.482948 21.231400,46.760056 
	C21.624453,45.709663 21.796816,44.889477 22.292707,44.019936 
	C22.831219,43.933357 23.046200,43.896133 23.627340,43.899940 
	C24.982872,44.019989 25.972246,44.099007 26.961620,44.178024 
M35.449532,53.860489 
	C35.158333,53.915264 34.867130,53.970039 34.575932,54.024818 
	C34.864590,54.091488 35.153244,54.158154 35.449532,53.860489 
z"/>
<path fill="#346946" opacity="1.000000" stroke="none" 
	d="
M44.012882,55.000778 
	C44.302837,52.997410 44.592796,50.994045 44.925350,48.696342 
	C43.587589,48.164829 41.925922,47.504623 40.467949,46.453835 
	C41.123886,45.995972 41.576126,45.928696 42.276684,45.879730 
	C42.524998,45.898033 43.020294,45.846386 43.242554,45.890251 
	C43.464813,45.934116 43.916523,45.898674 44.205105,45.908199 
	C44.686127,45.913246 44.878571,45.908772 45.294960,45.928074 
	C45.518913,45.951847 45.963776,45.878922 46.291054,45.919159 
	C47.056087,45.948116 47.493843,45.936840 48.196487,45.944401 
	C48.638363,45.967571 48.815350,45.971905 49.260735,46.207336 
	C50.757900,46.804832 51.986671,47.171223 53.215439,47.537613 
	C52.922791,47.807716 52.630142,48.077824 52.337490,48.347927 
	C53.552715,49.901489 54.767937,51.455051 55.983158,53.008614 
	C55.983158,53.008614 55.996803,53.499310 56.007385,53.744408 
	C53.642036,58.666729 49.719650,55.061485 45.969463,55.856377 
	C44.904804,55.900368 44.469326,55.836212 44.033279,55.579109 
	C44.032715,55.386162 44.012882,55.000778 44.012882,55.000778 
z"/>
<path fill="#2C7C49" opacity="1.000000" stroke="none" 
	d="
M43.739555,54.885582 
	C44.012882,55.000778 44.032715,55.386162 44.019844,55.897961 
	C44.011177,56.620724 44.015388,56.831692 44.019596,57.042660 
	C44.019596,57.042660 43.993378,57.005962 43.643234,56.998898 
	C42.552486,57.011517 41.811878,57.031200 41.071270,57.050884 
	C41.057919,56.875786 41.044563,56.700684 41.012981,56.262794 
	C41.818581,55.590134 42.642403,55.180264 43.739555,54.885582 
z"/>
<path fill="#366F49" opacity="1.000000" stroke="none" 
	d="
M31.002300,60.677086 
	C30.245281,61.001759 29.489626,60.993134 28.355812,60.968948 
	C28.790174,60.282146 29.602692,59.610912 30.714279,58.975571 
	C31.010118,59.455574 31.006889,59.899681 31.002300,60.677086 
z"/>
<path fill="#299158" opacity="1.000000" stroke="none" 
	d="
M41.114410,57.332153 
	C41.811878,57.031200 42.552486,57.011517 43.664841,57.005100 
	C43.076908,57.216717 42.117229,57.415070 41.114410,57.332153 
z"/>
<path fill="#299158" opacity="1.000000" stroke="none" 
	d="
M44.305862,56.992744 
	C44.015388,56.831692 44.011177,56.620724 44.020409,56.090908 
	C44.469326,55.836212 44.904804,55.900368 45.669830,55.984211 
	C45.530293,56.316879 45.061211,56.629856 44.305862,56.992744 
z"/>
<path fill="#355D43" opacity="1.000000" stroke="none" 
	d="
M56.070984,52.704712 
	C54.767937,51.455051 53.552715,49.901489 52.337490,48.347927 
	C52.630142,48.077824 52.922791,47.807716 53.215439,47.537613 
	C51.986671,47.171223 50.757900,46.804832 49.264557,45.949654 
	C49.006027,45.288742 49.012070,45.116623 49.241760,44.956993 
	C49.465412,44.969486 49.910912,44.922276 50.207779,44.934059 
	C50.702419,44.935059 50.900196,44.924278 51.395390,44.794601 
	C52.813759,44.051163 53.934704,43.426617 55.296455,42.869007 
	C55.537258,42.935944 56.022800,43.054749 56.244011,43.308643 
	C58.313728,45.710510 60.162228,47.858482 62.010735,50.006454 
	C61.813572,50.541122 61.616413,51.075787 61.206215,51.806358 
	C59.381721,52.135113 57.770267,52.267960 56.070984,52.704712 
z"/>
<path fill="#3A5741" opacity="1.000000" stroke="none" 
	d="
M62.146111,49.744923 
	C60.162228,47.858482 58.313728,45.710510 56.198425,43.253345 
	C55.931625,42.944153 55.894005,42.806057 56.203819,42.828247 
	C57.058178,42.594837 57.602722,42.339241 58.354355,42.050968 
	C58.561440,42.018295 58.973717,41.941902 58.973717,41.941902 
	C60.238274,42.420818 61.502834,42.899731 62.785313,43.385433 
	C62.617214,45.420040 62.449352,47.451714 62.146111,49.744923 
z"/>
<path fill="#6F463C" opacity="1.000000" stroke="none" 
	d="
M58.986931,41.544548 
	C58.973717,41.941902 58.561440,42.018295 58.282238,42.009216 
	C58.003036,42.000134 57.863361,41.911999 57.911148,41.492508 
	C57.907822,39.370132 57.856701,37.667248 57.876869,35.736740 
	C57.948151,35.509121 58.085819,35.052376 58.319241,35.034607 
	C58.552662,35.016842 59.018044,34.965645 59.018044,34.965645 
	C59.018044,34.965645 59.447136,34.955391 59.660378,34.935410 
	C59.582462,36.992683 59.291306,39.069939 58.986931,41.544548 
z"/>
<path fill="#B24043" opacity="1.000000" stroke="none" 
	d="
M44.981361,38.940243 
	C44.981365,38.940243 44.997364,39.417698 44.662708,39.682602 
	C43.884125,39.958073 43.440193,39.968643 42.887653,39.791382 
	C42.615170,39.361572 42.414146,39.155918 42.150230,38.559883 
	C42.144924,36.423950 42.165356,34.714710 42.344700,32.861687 
	C42.700314,32.504211 42.848583,32.260998 42.963932,31.989452 
	C42.979439,31.990652 43.008121,32.002689 43.251122,32.006947 
	C43.494118,32.011204 43.979794,32.030773 43.986660,32.442223 
	C44.322807,34.882526 44.652084,36.911385 44.981361,38.940243 
z"/>
<path fill="#8E5034" opacity="1.000000" stroke="none" 
	d="
M44.979996,38.481857 
	C44.652084,36.911385 44.322807,34.882526 43.994499,32.024689 
	C44.317604,29.135502 44.639740,27.075293 44.961876,25.015083 
	C44.967461,29.351213 44.973045,33.687344 44.979996,38.481857 
z"/>
<path fill="#C74C3C" opacity="1.000000" stroke="none" 
	d="
M42.961597,17.971275 
	C42.981651,19.062531 43.001705,20.153784 43.022766,22.100937 
	C43.018559,25.972118 43.013340,28.987404 43.008121,32.002689 
	C43.008121,32.002689 42.979439,31.990652 42.761806,31.986904 
	C42.544174,31.983156 42.139095,31.968134 42.103359,31.510780 
	C41.999695,27.371706 41.931770,23.689981 41.909359,19.673019 
	C42.012291,18.890553 42.069702,18.443321 42.335777,17.991306 
	C42.544441,17.986523 42.961597,17.971275 42.961597,17.971275 
z"/>
<path fill="#6D4C33" opacity="1.000000" stroke="none" 
	d="
M42.996265,39.979210 
	C43.440193,39.968643 43.884125,39.958073 44.660069,39.921448 
	C44.992085,39.895393 45.470009,39.950397 45.709778,39.936920 
	C46.134357,39.923988 46.319168,39.924530 46.818115,39.923332 
	C47.132252,39.921593 47.206974,39.921597 47.175518,40.262714 
	C47.075356,41.053291 47.006649,41.502747 46.706432,41.961788 
	C46.474926,41.971371 46.011803,41.987621 45.751530,42.222950 
	C45.351177,43.606953 45.211094,44.755627 45.071011,45.904301 
	C44.878571,45.908772 44.686127,45.913246 44.229782,45.563095 
	C43.650833,44.174110 43.335785,43.139751 42.767128,42.097221 
	C42.345337,42.107338 42.177162,42.125626 42.004864,42.103882 
	C42.000736,42.063858 41.989834,41.984127 41.958138,41.700439 
	C41.896507,41.228813 41.866577,41.040878 41.904366,40.676041 
	C41.972088,40.499138 42.103893,40.143951 42.329536,40.116592 
	C42.555183,40.089237 42.996265,39.979210 42.996265,39.979210 
z"/>
<path fill="#964741" opacity="1.000000" stroke="none" 
	d="
M43.251122,32.006947 
	C43.013340,28.987404 43.018559,25.972118 43.038872,22.509777 
	C43.687836,22.820578 44.321705,23.578434 44.958725,24.675686 
	C44.639740,27.075293 44.317604,29.135502 43.987633,31.613243 
	C43.979794,32.030773 43.494118,32.011204 43.251122,32.006947 
z"/>
<path fill="#C84D3A" opacity="1.000000" stroke="none" 
	d="
M42.111050,12.014240 
	C42.083485,9.993990 42.055916,7.973740 42.271214,5.508171 
	C42.514080,5.062851 42.959301,5.105891 42.959301,5.105891 
	C42.967327,7.123575 42.975353,9.141259 42.759430,11.586774 
	C42.535473,12.014605 42.111050,12.014240 42.111050,12.014240 
z"/>
<path fill="#D75442" opacity="1.000000" stroke="none" 
	d="
M42.066391,12.347420 
	C42.111050,12.014240 42.535473,12.014605 42.747063,12.021421 
	C42.966034,13.726786 42.973412,15.425333 42.971191,17.547577 
	C42.961597,17.971275 42.544441,17.986523 42.298256,17.593983 
	C41.992577,16.139963 41.933083,15.078485 41.873589,14.017005 
	C41.922970,13.571537 41.972347,13.126068 42.066391,12.347420 
z"/>
<path fill="#894E3C" opacity="1.000000" stroke="none" 
	d="
M43.174934,4.976137 
	C42.959301,5.105891 42.514080,5.062851 42.291439,5.077394 
	C42.068798,5.091938 41.976555,4.602287 41.944389,4.355803 
	C42.403690,4.090727 42.895164,4.072136 43.753891,4.106449 
	C43.877621,4.388364 43.634090,4.617374 43.174934,4.976137 
z"/>
<path fill="#B5503B" opacity="1.000000" stroke="none" 
	d="
M52.360771,7.396945 
	C52.771770,7.707566 52.850586,8.068573 52.948959,8.708443 
	C52.647560,15.677124 52.326611,22.366943 51.964577,29.808537 
	C51.626881,31.034435 51.330265,31.508562 51.019825,31.530428 
	C50.991035,28.047800 50.976070,25.017435 50.980412,21.538971 
	C50.968323,18.406342 50.936924,15.721813 50.905525,13.037285 
	C51.279881,11.173967 51.654232,9.310650 52.360771,7.396945 
z"/>
<path fill="#A64C39" opacity="1.000000" stroke="none" 
	d="
M51.033653,31.982691 
	C51.330265,31.508562 51.626881,31.034435 51.967377,30.276590 
	C52.457211,29.995674 52.903160,29.998476 53.684029,30.002874 
	C54.022427,31.721247 54.025909,33.438023 53.948063,35.884140 
	C52.921036,37.395401 51.975338,38.177319 51.040539,38.954288 
	C51.051441,38.949345 51.043644,38.922581 51.028553,38.492092 
	C51.020191,36.035301 51.026920,34.008995 51.033653,31.982691 
z"/>
<path fill="#297145" opacity="1.000000" stroke="none" 
	d="
M37.909782,70.309471 
	C37.912708,69.671623 37.964779,69.219444 38.058846,68.431175 
	C38.233181,68.905380 38.365524,69.715691 38.282059,70.695000 
	C38.066250,70.864006 37.958931,70.495148 37.909782,70.309471 
z"/>
<path fill="#406E51" opacity="1.000000" stroke="none" 
	d="
M36.886017,71.172180 
	C37.092293,71.480759 37.033741,71.945587 36.890896,72.753441 
	C36.806606,73.096466 36.370670,73.047974 36.151905,73.024490 
	C36.162491,72.443481 36.391842,71.885948 36.886017,71.172180 
z"/>
<path fill="#704335" opacity="1.000000" stroke="none" 
	d="
M51.029636,38.959232 
	C51.975338,38.177319 52.921036,37.395401 53.957909,36.313248 
	C54.778358,36.011402 55.507641,36.009785 56.650131,35.988792 
	C57.063343,35.969418 57.163013,35.939095 57.133049,36.342434 
	C57.042645,37.815441 56.982197,38.885113 56.712757,39.960518 
	C56.503761,39.966251 56.085640,39.971325 55.966755,39.837120 
	C55.546661,39.787464 55.245453,39.872009 54.559059,39.966705 
	C53.147778,40.026596 52.121689,40.076332 51.069855,39.834251 
	C51.039284,39.348038 51.034462,39.153633 51.029636,38.959232 
z"/>
<path fill="#8B4940" opacity="1.000000" stroke="none" 
	d="
M59.015736,34.514648 
	C59.018044,34.965645 58.552662,35.016842 58.291367,34.579292 
	C58.020279,31.418301 58.010483,28.694862 58.000690,25.971424 
	C58.000690,25.971424 57.999256,25.484077 58.238228,25.242767 
	C58.477203,25.001457 58.953125,25.006199 58.953125,25.006199 
	C58.953125,25.006199 59.014233,24.965593 59.049534,24.978100 
	C59.061035,28.014952 59.037231,31.039301 59.015736,34.514648 
z"/>
<path fill="#B45643" opacity="1.000000" stroke="none" 
	d="
M57.728378,26.276779 
	C58.010483,28.694862 58.020279,31.418301 58.057945,34.597057 
	C58.085819,35.052376 57.948151,35.509121 57.716858,35.735123 
	C57.485561,35.961121 57.163013,35.939095 57.163013,35.939095 
	C57.163013,35.939095 57.063343,35.969418 57.015484,35.990688 
	C57.130440,32.868687 57.293251,29.725410 57.728378,26.276779 
z"/>
<path fill="#734C3F" opacity="1.000000" stroke="none" 
	d="
M58.956104,24.760956 
	C58.953125,25.006199 58.477203,25.001457 58.239265,24.999096 
	C58.136944,24.730625 58.314907,24.496744 58.711464,24.162750 
	C58.887714,24.030411 58.959084,24.515713 58.956104,24.760956 
z"/>
<path fill="#2C905A" opacity="1.000000" stroke="none" 
	d="
M19.990780,50.023300 
	C19.990780,50.023300 19.972656,50.508659 19.967834,50.996124 
	C19.963013,51.483585 19.964514,51.972649 19.964514,51.972649 
	C18.541979,52.402714 17.119446,52.832779 15.389876,53.101921 
	C15.526618,52.337345 15.970396,51.733696 16.998047,51.026131 
	C18.062864,50.627102 18.543812,50.331985 19.023125,50.032265 
	C19.021492,50.027664 19.036390,50.036293 19.275002,50.034035 
	C19.513611,50.031776 19.990780,50.023300 19.990780,50.023300 
z"/>
<path fill="#325E45" opacity="1.000000" stroke="none" 
	d="
M24.113178,59.757561 
	C23.871304,59.965675 23.694458,59.960503 23.253887,59.924316 
	C23.274139,59.428204 23.558119,58.963104 23.842098,58.498005 
	C23.954136,58.846764 24.066172,59.195518 24.113178,59.757561 
z"/>
<path fill="#2C764B" opacity="1.000000" stroke="none" 
	d="
M20.301733,51.979065 
	C19.964514,51.972649 19.963013,51.483585 19.965843,51.238968 
	C20.508953,51.185772 21.049229,51.377201 21.787868,51.779793 
	C21.537140,51.989128 21.088045,51.987305 20.301733,51.979065 
z"/>
<path fill="#BF4B40" opacity="1.000000" stroke="none" 
	d="
M47.095245,39.916466 
	C47.195862,29.500641 47.333492,19.089943 47.728844,8.751315 
	C48.029427,9.900937 48.072281,10.978488 48.086426,12.518457 
	C48.061363,19.314062 48.065010,25.647251 48.046936,32.421135 
	C48.034664,34.920979 48.044109,36.980125 47.987137,39.272591 
	C47.920715,39.505901 47.704998,39.940468 47.581131,39.939259 
	C47.457268,39.938049 47.206974,39.921597 47.206974,39.921597 
	C47.206974,39.921597 47.132252,39.921593 47.095245,39.916466 
z"/>
<path fill="#93513E" opacity="1.000000" stroke="none" 
	d="
M48.115135,12.056040 
	C48.072281,10.978488 48.029427,9.900937 47.974884,8.419714 
	C47.963196,8.016042 48.456036,8.004722 48.701668,8.002789 
	C48.942581,9.082796 48.937855,10.164736 48.704903,11.644939 
	C48.476669,12.043202 48.115135,12.056040 48.115135,12.056040 
z"/>
<path fill="#348858" opacity="1.000000" stroke="none" 
	d="
M21.969179,44.069294 
	C21.796816,44.889477 21.624453,45.709663 21.218754,46.520134 
	C20.985416,46.510426 20.961590,46.030205 20.736469,45.795624 
	C19.675440,45.376354 18.839531,45.191666 17.667286,45.002419 
	C16.882494,44.984413 16.434038,44.970966 15.985583,44.957516 
	C15.985583,44.957516 15.987727,44.474640 15.994038,44.233173 
	C16.000347,43.991707 16.018654,43.519989 16.034176,43.284847 
	C16.049698,43.049706 16.496851,43.021206 16.720097,43.014084 
	C18.010887,43.012493 19.078432,43.018024 20.749245,43.168037 
	C21.608179,43.523941 21.813736,43.776199 21.969179,44.069294 
z"/>
<path fill="#378558" opacity="1.000000" stroke="none" 
	d="
M15.981194,44.972706 
	C16.434038,44.970966 16.882494,44.984413 17.668205,45.250488 
	C18.005461,45.503120 18.005781,45.999443 18.004940,46.399010 
	C17.987970,47.863091 17.971842,48.927612 17.715748,49.988632 
	C17.475780,49.985130 16.995821,49.989429 16.995821,49.989429 
	C16.656637,48.913036 16.317451,47.836643 15.975077,46.146629 
	C15.968092,45.359791 15.964295,45.186573 15.960498,45.013351 
	C15.960498,45.013351 15.976804,44.987896 15.981194,44.972706 
z"/>
<path fill="#2C764B" opacity="1.000000" stroke="none" 
	d="
M16.998589,50.239414 
	C16.995821,49.989429 17.475780,49.985130 17.983522,49.997368 
	C18.669096,50.018692 18.846926,50.027779 19.024757,50.036865 
	C18.543812,50.331985 18.062864,50.627102 17.293989,50.955799 
	C17.004492,50.822723 17.002924,50.656063 16.998589,50.239414 
z"/>
<path fill="#348858" opacity="1.000000" stroke="none" 
	d="
M15.829706,45.115463 
	C15.964295,45.186573 15.968092,45.359791 15.963030,45.793247 
	C15.622879,45.830318 15.537793,45.551682 15.829706,45.115463 
z"/>
<path fill="#3B6142" opacity="1.000000" stroke="none" 
	d="
M22.292707,44.019936 
	C21.813736,43.776199 21.608179,43.523941 21.148312,43.176422 
	C20.954041,42.865826 20.963966,42.691319 21.249023,42.254082 
	C21.698605,41.983574 21.873055,41.975800 22.047504,41.968021 
	C22.047504,41.968021 22.500061,41.995144 22.769253,42.303688 
	C23.112692,43.027790 23.186937,43.443352 23.261183,43.858910 
	C23.046200,43.896133 22.831219,43.933357 22.292707,44.019936 
z"/>
<path fill="#576042" opacity="1.000000" stroke="none" 
	d="
M22.036648,41.589844 
	C21.873055,41.975800 21.698605,41.983574 21.262222,41.992233 
	C21.003412,41.241074 21.006531,40.489029 21.217913,39.355705 
	C21.426176,38.974426 21.797836,38.952454 21.797836,38.952454 
	C21.873821,39.705524 21.949806,40.458595 22.036648,41.589844 
z"/>
<path fill="#406550" opacity="1.000000" stroke="none" 
	d="
M21.871672,38.587841 
	C21.797836,38.952454 21.426176,38.974426 21.240707,38.980110 
	C21.055237,38.985794 21.030163,38.490826 21.021599,38.243118 
	C21.016880,37.540199 21.020723,37.084988 21.041073,36.288727 
	C21.248327,35.935745 21.439074,35.923820 21.913975,35.961967 
	C22.113926,36.749104 22.029716,37.486164 21.871672,38.587841 
z"/>
<path fill="#7D4D3A" opacity="1.000000" stroke="none" 
	d="
M48.086426,12.518457 
	C48.115135,12.056040 48.476669,12.043202 48.656502,12.048082 
	C48.916035,13.745413 48.995739,15.437864 49.071388,18.018387 
	C49.001881,23.276693 48.936424,27.646929 48.671505,32.007160 
	C48.472042,31.997152 48.068657,31.980438 48.068657,31.980438 
	C48.065010,25.647251 48.061363,19.314062 48.086426,12.518457 
z"/>
<path fill="#CC4E3C" opacity="1.000000" stroke="none" 
	d="
M48.870968,32.017166 
	C48.936424,27.646929 49.001881,23.276693 49.112888,18.440760 
	C49.158440,17.975063 49.498089,17.981403 49.716549,18.380676 
	C49.986984,19.846727 50.038960,20.913504 50.059242,22.436119 
	C49.984482,25.933187 49.941414,28.974417 49.704422,32.004921 
	C49.510498,31.994198 49.121445,31.970541 49.059586,31.986275 
	C48.997726,32.002007 48.870968,32.017166 48.870968,32.017166 
z"/>
<path fill="#78473E" opacity="1.000000" stroke="none" 
	d="
M50.090935,21.980282 
	C50.038960,20.913504 49.986984,19.846727 49.886402,18.381496 
	C49.911385,16.606792 49.984974,15.230542 50.093914,13.442940 
	C50.129265,13.031589 50.518669,13.021845 50.712097,13.029565 
	C50.936924,15.721813 50.968323,18.406342 50.763031,21.539791 
	C50.526344,21.988712 50.090935,21.980282 50.090935,21.980282 
z"/>
<path fill="#A7A32F" opacity="1.000000" stroke="none" 
	d="
M42.103893,40.143951 
	C42.103893,40.143951 41.972088,40.499138 41.671562,40.640766 
	C41.371040,40.782394 40.917515,40.643475 40.917515,40.643475 
	C40.917515,40.643475 40.768394,40.289963 40.684750,40.116302 
	C40.752308,33.599796 40.903507,27.256948 41.268814,20.453651 
	C41.482914,19.993202 41.863846,20.008259 41.863846,20.008259 
	C41.931770,23.689981 41.999695,27.371706 42.087696,31.771475 
	C42.133774,32.661507 42.159782,32.833488 42.185791,33.005474 
	C42.165356,34.714710 42.144924,36.423950 42.104172,38.847530 
	C42.090527,39.755901 42.097210,39.949924 42.103893,40.143951 
z"/>
<path fill="#9A9627" opacity="1.000000" stroke="none" 
	d="
M41.909363,19.673019 
	C41.863846,20.008259 41.482914,19.993202 41.293266,19.984344 
	C41.080860,18.263760 41.058102,16.552031 41.079086,14.412548 
	C41.122829,13.984795 41.499115,13.999400 41.686352,14.008203 
	C41.933083,15.078485 41.992577,16.139963 42.089592,17.598766 
	C42.069702,18.443321 42.012291,18.890553 41.909363,19.673019 
z"/>
<path fill="#9C4D3B" opacity="1.000000" stroke="none" 
	d="
M23.627340,43.899940 
	C23.186937,43.443352 23.112692,43.027790 22.995850,42.297398 
	C22.963938,40.900806 22.974621,39.819050 22.983755,38.328148 
	C23.249155,38.057133 23.486622,38.234676 23.824047,38.627861 
	C24.960836,40.338226 25.968182,41.872356 26.968575,43.792259 
	C25.972246,44.099007 24.982872,44.019989 23.627340,43.899940 
z"/>
<path fill="#894E3C" opacity="1.000000" stroke="none" 
	d="
M29.036554,44.903568 
	C28.788433,44.929955 28.549381,44.894840 28.173210,44.695755 
	C28.173590,43.899124 28.320162,43.204964 28.732615,42.627190 
	C29.011181,43.463573 29.023869,44.183571 29.036554,44.903568 
z"/>
<path fill="#AE5347" opacity="1.000000" stroke="none" 
	d="
M29.271481,44.928673 
	C29.023869,44.183571 29.011181,43.463573 28.990711,42.382599 
	C29.150126,42.017590 29.317324,42.013557 29.734940,42.003555 
	C29.985359,41.997578 30.009546,42.013927 30.006712,42.382553 
	C29.994720,43.469097 29.985563,44.187012 29.976406,44.904930 
	C29.976406,44.904930 29.506409,44.953773 29.271481,44.928673 
z"/>
<path fill="#AB4F42" opacity="1.000000" stroke="none" 
	d="
M35.061653,45.745468 
	C33.946167,45.509750 32.830677,45.274033 31.357788,44.658390 
	C31.010466,43.848904 31.020550,43.419346 31.030632,42.989784 
	C32.085648,42.996071 33.140659,43.002357 34.600891,43.352837 
	C35.024620,44.379841 35.043137,45.062656 35.061653,45.745468 
z"/>
<path fill="#7B491C" opacity="1.000000" stroke="none" 
	d="
M40.497917,40.728256 
	C40.917515,40.643475 41.371040,40.782394 41.603844,40.817673 
	C41.866577,41.040878 41.896507,41.228813 41.671204,41.739777 
	C41.225803,42.096794 41.035633,42.130775 40.463051,42.116032 
	C39.053421,42.073795 38.026196,42.080288 36.672295,42.055096 
	C35.910603,41.982700 35.475594,41.941986 35.040585,41.901276 
	C35.040585,41.901276 35.024002,41.456558 34.994186,41.235924 
	C36.669022,40.947872 38.373669,40.880459 40.497917,40.728256 
z"/>
<path fill="#CA4C44" opacity="1.000000" stroke="none" 
	d="
M35.025829,42.179001 
	C35.475594,41.941986 35.910603,41.982700 36.668129,42.311207 
	C36.986103,42.770493 36.981567,42.941978 36.736271,43.301170 
	C36.281914,44.272476 36.068325,45.056068 35.854736,45.839664 
	C35.854736,45.839664 35.448532,45.873520 35.255093,45.809494 
	C35.043137,45.062656 35.024620,44.379841 34.996521,43.354729 
	C34.994980,42.827194 35.003029,42.641960 35.025829,42.179001 
z"/>
<path fill="#8A4E36" opacity="1.000000" stroke="none" 
	d="
M31.016426,42.753937 
	C31.020550,43.419346 31.010466,43.848904 31.013681,44.598717 
	C30.851719,44.936890 30.676460,44.954807 30.238804,44.938828 
	C29.985563,44.187012 29.994720,43.469097 30.016449,42.392448 
	C30.029020,42.033718 30.501064,42.019135 30.736267,42.032845 
	C30.971472,42.046551 31.002222,42.518093 31.016426,42.753937 
z"/>
<path fill="#366A48" opacity="1.000000" stroke="none" 
	d="
M19.023125,50.032265 
	C18.846926,50.027779 18.669096,50.018692 18.223488,50.000870 
	C17.971842,48.927612 17.987970,47.863091 18.374708,46.398010 
	C19.484076,46.008366 20.222832,46.019287 20.961590,46.030205 
	C20.961590,46.030205 20.985416,46.510426 20.998064,46.750343 
	C20.745808,47.482948 20.480902,47.975636 19.906933,48.865139 
	C19.351498,49.477131 19.164337,49.735241 19.036390,50.036293 
	C19.036390,50.036293 19.021492,50.027664 19.023125,50.032265 
z"/>
<path fill="#BB5348" opacity="1.000000" stroke="none" 
	d="
M36.977036,43.113464 
	C36.981567,42.941978 36.986103,42.770493 36.994808,42.342892 
	C38.026196,42.080288 39.053421,42.073795 40.501083,42.303940 
	C40.921524,42.540581 40.967178,42.923256 40.629372,42.967976 
	C39.525574,43.670364 38.759583,44.328033 37.984688,45.192448 
	C37.975784,45.399197 37.956688,45.812637 37.956688,45.812637 
	C37.956688,45.812637 37.546444,45.893017 37.308990,45.528992 
	C37.040039,44.481136 37.008537,43.797298 36.977036,43.113464 
z"/>
<path fill="#924340" opacity="1.000000" stroke="none" 
	d="
M38.296494,45.881611 
	C37.956688,45.812637 37.975784,45.399197 38.330006,45.177750 
	C39.445210,44.278622 40.206192,43.600937 40.967178,42.923256 
	C40.967178,42.923256 40.921524,42.540581 40.883492,42.352669 
	C41.035633,42.130775 41.225803,42.096794 41.702904,42.023468 
	C41.989834,41.984127 42.000736,42.063858 42.001553,42.473061 
	C42.011036,43.875313 42.019703,44.868370 42.028370,45.861423 
	C41.576126,45.928696 41.123886,45.995972 40.336182,46.134430 
	C39.545914,46.120605 39.091103,46.035595 38.296494,45.881611 
z"/>
<path fill="#2C764B" opacity="1.000000" stroke="none" 
	d="
M35.445717,54.042656 
	C35.153244,54.158154 34.864590,54.091488 34.575932,54.024818 
	C34.867130,53.970039 35.158333,53.915264 35.445717,54.042656 
z"/>
<path fill="#7A472D" opacity="1.000000" stroke="none" 
	d="
M36.736271,43.301170 
	C37.008537,43.797298 37.040039,44.481136 37.101151,45.506824 
	C36.918125,45.859802 36.705486,45.870926 36.173790,45.860855 
	C36.068325,45.056068 36.281914,44.272476 36.736271,43.301170 
z"/>
<path fill="#337750" opacity="1.000000" stroke="none" 
	d="
M19.275002,50.034035 
	C19.164337,49.735241 19.351498,49.477131 19.792768,49.120674 
	C19.989481,49.153271 19.991293,49.327152 19.991943,49.762169 
	C19.990780,50.023300 19.513611,50.031776 19.275002,50.034035 
z"/>
<path fill="#2C764B" opacity="1.000000" stroke="none" 
	d="
M23.999128,48.000637 
	C23.998257,48.001274 23.694305,47.813557 23.694305,47.813557 
	C23.694305,47.813557 23.915768,47.828503 23.958508,47.913380 
	C24.001247,47.998257 24.000000,48.000000 23.999128,48.000637 
z"/>
<path fill="#5D4838" opacity="1.000000" stroke="none" 
	d="
M47.704998,39.940468 
	C47.704998,39.940468 47.920715,39.505901 48.197166,39.259708 
	C48.473614,39.013515 48.896248,39.009918 48.951191,39.431835 
	C49.010128,41.550671 49.014118,43.247585 49.018112,44.944504 
	C49.012070,45.116623 49.006027,45.288742 48.996162,45.718548 
	C48.815350,45.971905 48.638363,45.967571 48.199280,45.684731 
	C47.926945,45.232826 47.916714,45.059433 47.940758,44.476830 
	C47.885021,42.691906 47.795010,41.316189 47.704998,39.940468 
z"/>
<path fill="#8D4836" opacity="1.000000" stroke="none" 
	d="
M47.906483,44.886036 
	C47.916714,45.059433 47.926945,45.232826 47.934391,45.665894 
	C47.493843,45.936840 47.056087,45.948116 46.297623,45.531563 
	C45.988548,44.065029 46.000175,43.026325 46.011803,41.987621 
	C46.011803,41.987621 46.474926,41.971371 46.728035,42.285149 
	C47.289593,43.361298 47.598038,44.123665 47.906483,44.886036 
z"/>
<path fill="#A54E38" opacity="1.000000" stroke="none" 
	d="
M42.276684,45.879730 
	C42.019703,44.868370 42.011036,43.875313 42.005680,42.513084 
	C42.177162,42.125626 42.345337,42.107338 42.759747,42.469620 
	C43.010754,43.848923 43.015522,44.847652 43.020294,45.846386 
	C43.020294,45.846386 42.524998,45.898033 42.276684,45.879730 
z"/>
<path fill="#AA4C39" opacity="1.000000" stroke="none" 
	d="
M45.751526,42.222950 
	C46.000175,43.026325 45.988548,44.065029 45.970348,45.491325 
	C45.963776,45.878922 45.518913,45.951847 45.294960,45.928074 
	C45.211094,44.755627 45.351177,43.606953 45.751526,42.222950 
z"/>
<path fill="#B03E4F" opacity="1.000000" stroke="none" 
	d="
M43.242554,45.890251 
	C43.015522,44.847652 43.010754,43.848923 43.013359,42.477791 
	C43.335785,43.139751 43.650833,44.174110 43.941200,45.553570 
	C43.916523,45.898674 43.464813,45.934116 43.242554,45.890251 
z"/>
<path fill="#904938" opacity="1.000000" stroke="none" 
	d="
M51.095600,40.126064 
	C52.121689,40.076332 53.147778,40.026596 54.577446,40.323654 
	C55.005901,41.380993 55.030777,42.091530 55.055653,42.802071 
	C53.934704,43.426617 52.813759,44.051163 51.365028,44.395638 
	C51.056698,42.785728 51.076149,41.455898 51.095600,40.126064 
z"/>
<path fill="#B84C3E" opacity="1.000000" stroke="none" 
	d="
M49.241760,44.956993 
	C49.014118,43.247585 49.010128,41.550671 49.046074,39.424316 
	C49.086014,38.994884 49.275372,38.975307 49.382168,38.973366 
	C49.488964,38.971428 49.702358,38.981468 49.787895,38.987640 
	C49.873428,38.993809 50.044697,39.002941 49.992126,39.424168 
	C49.930008,41.537689 49.920460,43.229980 49.910912,44.922276 
	C49.910912,44.922276 49.465412,44.969486 49.241760,44.956993 
z"/>
<path fill="#6B423F" opacity="1.000000" stroke="none" 
	d="
M50.207779,44.934059 
	C49.920460,43.229980 49.930008,41.537689 50.241745,39.403793 
	C50.710499,38.948990 50.877071,38.935787 51.043644,38.922581 
	C51.043644,38.922581 51.051441,38.949345 51.040539,38.954288 
	C51.034462,39.153633 51.039284,39.348038 51.069855,39.834251 
	C51.076149,41.455898 51.056698,42.785728 51.067608,44.514530 
	C50.900196,44.924278 50.702419,44.935059 50.207779,44.934059 
z"/>
<path fill="#AD4534" opacity="1.000000" stroke="none" 
	d="
M55.296455,42.869007 
	C55.030777,42.091530 55.005901,41.380993 54.962635,40.313503 
	C55.245453,39.872009 55.546661,39.787464 55.942352,40.192703 
	C55.989223,41.390347 55.941616,42.098202 55.894005,42.806057 
	C55.894005,42.806057 55.931625,42.944153 55.977211,42.999451 
	C56.022800,43.054749 55.537258,42.935944 55.296455,42.869007 
z"/>
<path fill="#8A4B44" opacity="1.000000" stroke="none" 
	d="
M56.203819,42.828247 
	C55.941616,42.098202 55.989223,41.390347 56.061237,40.326908 
	C56.085640,39.971325 56.503761,39.966251 56.767452,40.237434 
	C57.308552,40.976410 57.585957,41.444202 57.863361,41.911999 
	C57.863361,41.911999 58.003036,42.000134 58.075153,42.041885 
	C57.602722,42.339241 57.058178,42.594837 56.203819,42.828247 
z"/>
<path fill="#AC4F3F" opacity="1.000000" stroke="none" 
	d="
M57.911148,41.492508 
	C57.585957,41.444202 57.308552,40.976410 56.976448,40.231697 
	C56.982197,38.885113 57.042645,37.815441 57.133049,36.342434 
	C57.163013,35.939095 57.485561,35.961121 57.645573,35.962742 
	C57.856701,37.667248 57.907822,39.370132 57.911148,41.492508 
z"/>
<path fill="#BC573A" opacity="1.000000" stroke="none" 
	d="
M42.344704,32.861687 
	C42.159782,32.833488 42.133774,32.661507 42.123432,32.228828 
	C42.139095,31.968134 42.544174,31.983156 42.746300,31.985703 
	C42.848583,32.260998 42.700314,32.504211 42.344704,32.861687 
z"/>
<path fill="#BC573A" opacity="1.000000" stroke="none" 
	d="
M42.329536,40.116592 
	C42.097210,39.949924 42.090527,39.755901 42.129910,39.274231 
	C42.414146,39.155918 42.615170,39.361572 42.887653,39.791382 
	C42.996265,39.979210 42.555183,40.089237 42.329536,40.116592 
z"/>
<path fill="#AF4942" opacity="1.000000" stroke="none" 
	d="
M47.940758,44.476830 
	C47.598038,44.123665 47.289593,43.361298 46.959541,42.275566 
	C47.006649,41.502747 47.075356,41.053291 47.175518,40.262714 
	C47.206974,39.921597 47.457268,39.938049 47.581131,39.939259 
	C47.795010,41.316189 47.885021,42.691906 47.940758,44.476830 
z"/>
<path fill="#85443E" opacity="1.000000" stroke="none" 
	d="
M51.028553,38.492092 
	C50.877071,38.935787 50.710499,38.948990 50.294312,38.982567 
	C50.044697,39.002941 49.873428,38.993809 49.880798,38.559494 
	C49.891556,36.088665 49.894947,34.052158 49.898346,32.015648 
	C49.941414,28.974417 49.984482,25.933187 50.059242,22.436119 
	C50.090935,21.980282 50.526344,21.988712 50.743725,21.987892 
	C50.976070,25.017435 50.991035,28.047800 51.019829,31.530428 
	C51.026920,34.008995 51.020191,36.035301 51.028553,38.492092 
z"/>
<path fill="#8A4A38" opacity="1.000000" stroke="none" 
	d="
M48.991131,39.002403 
	C48.896248,39.009918 48.473614,39.013515 48.263584,39.026398 
	C48.044109,36.980125 48.034664,34.920979 48.046936,32.421135 
	C48.068657,31.980438 48.472042,31.997152 48.671505,32.007160 
	C48.870968,32.017166 48.997726,32.002007 49.014767,32.424610 
	C49.112995,34.889912 49.194183,36.932610 49.275372,38.975307 
	C49.275372,38.975307 49.086014,38.994884 48.991131,39.002403 
z"/>
<path fill="#258047" opacity="1.000000" stroke="none" 
	d="
M20.736469,45.795624 
	C20.222832,46.019287 19.484076,46.008366 18.375549,45.998444 
	C18.005781,45.999443 18.005461,45.503120 18.004543,45.255051 
	C18.839531,45.191666 19.675440,45.376354 20.736469,45.795624 
z"/>
<path fill="#D94836" opacity="1.000000" stroke="none" 
	d="
M49.382168,38.973366 
	C49.194183,36.932610 49.112995,34.889912 49.076626,32.408878 
	C49.121445,31.970541 49.510498,31.994198 49.704422,32.004921 
	C49.894947,34.052158 49.891556,36.088665 49.795261,38.553322 
	C49.702358,38.981468 49.488964,38.971428 49.382168,38.973366 
z"/>
<path fill="#96502E" opacity="1.000000" stroke="none" 
	d="
M40.629368,42.967972 
	C40.206192,43.600937 39.445210,44.278622 38.338909,44.971001 
	C38.759583,44.328033 39.525574,43.670364 40.629368,42.967972 
z"/>
</svg>