<svg version="1.1" id="Layer_1" xmlns="http://www.w3.org/2000/svg" xmlns:xlink="http://www.w3.org/1999/xlink" x="0px" y="0px"
	 width="100%" viewBox="0 0 80 80" enable-background="new 0 0 80 80" xml:space="preserve">
<path fill="#000000" opacity="1.000000" stroke="none" 
	d="
M52.000000,81.000000 
	C34.666668,81.000000 17.833334,81.000000 1.000000,81.000000 
	C1.000000,54.333332 1.000000,27.666666 1.000000,1.000000 
	C27.666666,1.000000 54.333332,1.000000 81.000000,1.000000 
	C81.000000,27.666666 81.000000,54.333332 81.000000,81.000000 
	C71.500000,81.000000 62.000000,81.000000 52.000000,81.000000 
M48.000450,66.999695 
	C48.000450,66.999695 47.972965,66.970436 48.458099,66.820969 
	C48.540890,66.516724 48.623676,66.212479 48.835823,65.463806 
	C48.835823,65.463806 48.996376,65.029678 49.541512,64.828270 
	C50.047611,64.253487 50.553711,63.678696 51.655560,62.772579 
	C53.793915,60.532154 55.932270,58.291733 58.623135,55.732311 
	C59.796417,54.498611 60.969700,53.264912 62.545719,51.838699 
	C62.794708,51.657127 62.969322,51.420639 63.752052,50.973473 
	C67.880333,47.603554 71.087936,43.736515 71.067879,37.368053 
	C71.095222,34.512428 71.122566,31.656801 71.028503,28.087133 
	C69.342400,23.332724 67.135078,19.009457 61.394676,16.805834 
	C60.249878,16.279438 59.105083,15.753041 57.346451,15.084561 
	C56.927647,15.055679 56.508839,15.026797 55.688274,14.303365 
	C53.432762,14.526037 51.177254,14.748711 48.324673,15.000376 
	C47.862228,15.304310 47.399780,15.608245 46.276428,15.982168 
	C45.502811,16.360052 44.729195,16.737936 43.303467,17.156809 
	C42.868332,17.148314 42.433197,17.139818 41.178543,16.910486 
	C39.771950,17.040586 38.365353,17.170687 36.967247,17.178841 
	C36.967247,17.178841 36.845867,17.164356 36.648350,16.649368 
	C36.302715,16.587955 35.957077,16.526543 35.472866,16.388882 
	C35.472866,16.388882 35.317520,16.418625 35.023933,15.938158 
	C34.022755,15.620136 33.021576,15.302114 31.602493,14.304146 
	C29.375317,14.637136 27.148140,14.970124 24.640663,15.273875 
	C24.640663,15.273875 24.360655,15.305776 23.507538,15.144683 
	C23.231205,15.230654 22.954872,15.316626 22.064140,15.403723 
	C20.734663,16.279655 19.405188,17.155588 17.551310,18.069866 
	C17.354412,18.343819 17.157515,18.617771 16.256056,19.005699 
	C8.968134,24.161736 7.046174,32.098858 11.008441,41.773361 
	C16.093069,51.852684 25.882065,57.033253 34.075233,63.865517 
	C36.251450,65.680267 38.653442,67.224266 40.904209,68.963608 
	C40.904209,68.963608 40.962395,69.025818 41.117813,69.524010 
	C41.408825,69.694786 41.699837,69.865562 42.115829,70.373695 
	C42.115829,70.373695 42.245617,70.709236 42.273914,71.413200 
	C45.472874,72.492516 46.378883,70.442657 46.998779,67.997887 
	C46.998779,67.997887 46.975616,67.972832 47.458508,67.817535 
	C47.628941,67.536552 47.799370,67.255577 48.000450,66.999695 
z"/>
<path fill="#F2443C" opacity="1.000000" stroke="none" 
	d="
M16.960617,18.891724 
	C17.157515,18.617771 17.354412,18.343819 18.123589,18.156363 
	C22.891344,21.960161 26.957439,19.609175 31.366030,17.958649 
	C32.534653,17.706776 33.376163,17.475950 34.441174,17.166531 
	C34.968441,16.948889 35.186054,16.725784 35.317520,16.418625 
	C35.317520,16.418625 35.472866,16.388882 35.692825,16.629484 
	C36.186275,17.087461 36.497303,17.185553 36.845867,17.164356 
	C36.845867,17.164356 36.967247,17.178841 37.067688,17.471384 
	C37.675720,18.221231 38.183304,18.678534 38.995186,19.306705 
	C40.197567,19.607157 41.095654,19.736738 42.189705,20.070747 
	C42.868046,20.563595 43.350418,20.852011 44.019592,21.354902 
	C44.780426,22.056576 45.354458,22.543774 45.953381,23.400959 
	C46.003098,24.512030 46.027927,25.253111 45.943516,26.192326 
	C46.189037,26.945827 46.543800,27.501198 47.151924,28.267385 
	C47.920822,29.652918 48.436363,30.827631 48.860428,32.205780 
	C49.131618,32.967617 49.494286,33.526020 49.868881,34.493919 
	C49.920780,36.268547 49.960758,37.633678 49.996994,39.415352 
	C49.992027,41.216679 49.990810,42.601471 49.800629,44.278965 
	C48.784889,49.718601 47.958111,54.865536 47.033764,60.330479 
	C45.961250,61.438248 44.986309,62.228012 43.732658,63.123871 
	C42.619896,65.117500 41.785835,67.005043 40.951775,68.892578 
	C38.653442,67.224266 36.251450,65.680267 34.075233,63.865517 
	C25.882065,57.033253 16.093069,51.852684 11.184187,41.106247 
	C14.611433,33.616554 11.163444,25.052620 16.960617,18.891724 
z"/>
<path fill="#5E4336" opacity="1.000000" stroke="none" 
	d="
M71.149902,28.801174 
	C71.122566,31.656801 71.095222,34.512428 70.588074,37.736965 
	C67.712151,40.055035 65.316040,42.004196 62.932583,43.542858 
	C63.618912,40.080254 64.292580,37.028149 65.149872,33.704460 
	C65.559608,31.619524 65.785721,29.806168 66.137650,27.739859 
	C67.135216,27.581244 68.033272,27.576399 68.871101,27.798618 
	C69.663589,28.008812 70.392838,28.457422 71.149902,28.801174 
z"/>
<path fill="#EA493F" opacity="1.000000" stroke="none" 
	d="
M16.608337,18.948711 
	C11.163444,25.052620 14.611433,33.616554 11.137049,40.752625 
	C7.046174,32.098858 8.968134,24.161736 16.608337,18.948711 
z"/>
<path fill="#4E453A" opacity="1.000000" stroke="none" 
	d="
M62.919926,43.953358 
	C65.316040,42.004196 67.712151,40.055035 70.441254,38.037018 
	C71.087936,43.736515 67.880333,47.603554 63.177914,50.863297 
	C62.062672,50.506294 61.521564,50.259464 60.722878,50.007103 
	C60.293415,49.997662 60.121540,49.993752 60.032578,49.713867 
	C60.079567,48.294621 60.043640,47.151344 60.281242,45.940399 
	C61.025379,45.577168 61.495983,45.281605 62.113922,44.803268 
	C62.463505,44.381027 62.683060,44.158649 62.919926,43.953358 
z"/>
<path fill="#694533" opacity="1.000000" stroke="none" 
	d="
M66.011841,27.992813 
	C65.785721,29.806168 65.559608,31.619524 65.051575,33.451363 
	C62.900471,30.626814 61.031284,27.783783 59.121147,24.692032 
	C59.051994,24.277447 59.023796,24.111584 58.917980,23.585312 
	C58.193634,20.843142 57.546909,18.461382 57.088600,15.952484 
	C57.522194,15.645664 57.749954,15.446096 57.960285,15.226645 
	C59.105083,15.753041 60.249878,16.279438 61.700657,17.297527 
	C62.087311,19.716854 62.249783,21.645378 62.228748,23.571899 
	C62.199982,26.206512 62.807892,28.178833 66.011841,27.992813 
z"/>
<path fill="#5A4438" opacity="1.000000" stroke="none" 
	d="
M66.137650,27.739859 
	C62.807892,28.178833 62.199982,26.206512 62.228748,23.571899 
	C62.249783,21.645378 62.087311,19.716854 61.987518,17.461668 
	C67.135078,19.009457 69.342400,23.332724 71.089203,28.444153 
	C70.392838,28.457422 69.663589,28.008812 68.871101,27.798618 
	C68.033272,27.576399 67.135216,27.581244 66.137650,27.739859 
z"/>
<path fill="#83493B" opacity="1.000000" stroke="none" 
	d="
M58.070625,56.051308 
	C55.932270,58.291733 53.793915,60.532154 51.302933,62.821354 
	C50.950302,62.870129 50.824360,62.644909 50.727306,62.411606 
	C50.106735,61.770096 49.583218,61.361889 48.920662,60.770798 
	C48.583836,60.351341 48.358315,60.145103 48.182739,59.677116 
	C50.464119,56.566601 52.667824,53.748169 55.238792,50.954056 
	C56.094017,51.001423 56.581985,51.024471 57.200863,51.246330 
	C57.537029,51.692638 57.770142,51.910297 57.993607,52.385948 
	C57.994278,53.799618 58.032452,54.925461 58.070625,56.051308 
z"/>
<path fill="#E9483F" opacity="1.000000" stroke="none" 
	d="
M31.038919,17.979696 
	C26.957439,19.609175 22.891344,21.960161 18.385788,18.137190 
	C19.405188,17.155588 20.734663,16.279655 22.564068,15.537525 
	C23.496216,15.549478 23.928434,15.427627 24.360655,15.305776 
	C24.360655,15.305776 24.640663,15.273875 24.948326,15.295598 
	C25.255991,15.317321 25.488266,15.082273 25.754482,15.353188 
	C27.000595,15.822162 27.980495,16.020220 29.177273,16.353390 
	C29.870281,16.669329 30.346407,16.850159 30.884918,17.266273 
	C30.947300,17.501560 31.038919,17.979696 31.038919,17.979696 
z"/>
<path fill="#BB4A3B" opacity="1.000000" stroke="none" 
	d="
M48.105057,59.969196 
	C48.358315,60.145103 48.583836,60.351341 48.903313,61.114998 
	C49.021194,62.100918 49.017395,62.559750 48.998856,63.353447 
	C48.988201,64.135437 48.992287,64.582558 48.996376,65.029678 
	C48.996376,65.029678 48.835823,65.463806 48.602097,65.828995 
	C48.158501,66.413185 48.026703,66.671936 47.972965,66.970436 
	C47.972965,66.970436 48.000450,66.999695 47.765266,67.092995 
	C47.257660,67.386719 47.072838,67.648903 46.975616,67.972832 
	C46.975616,67.972832 46.998779,67.997887 46.663609,67.987808 
	C45.697342,68.093033 45.066246,68.208336 44.379879,67.950882 
	C44.279613,67.077667 44.234619,66.577209 44.288090,65.876907 
	C44.255920,65.133804 44.125286,64.590546 43.994370,63.789841 
	C43.999844,63.360847 44.005604,63.189308 44.011364,63.017773 
	C44.986309,62.228012 45.961250,61.438248 47.276657,60.319855 
	C47.617119,59.991219 48.105057,59.969196 48.105057,59.969196 
z"/>
<path fill="#EE4A46" opacity="1.000000" stroke="none" 
	d="
M43.732658,63.123871 
	C44.005604,63.189308 43.999844,63.360847 44.012924,64.128586 
	C44.084393,65.175446 44.137009,65.626099 44.189629,66.076752 
	C44.234619,66.577209 44.279613,67.077667 44.296288,68.132301 
	C44.267971,68.686478 44.098404,69.049538 43.890961,69.224609 
	C43.405178,69.859627 43.126842,70.319580 42.701012,70.734276 
	C42.553516,70.689026 42.245617,70.709236 42.245617,70.709236 
	C42.245617,70.709236 42.115829,70.373695 41.930046,69.991776 
	C41.535999,69.345085 41.275375,69.150406 40.962395,69.025818 
	C40.962395,69.025818 40.904209,68.963608 40.927994,68.928093 
	C41.785835,67.005043 42.619896,65.117500 43.732658,63.123871 
z"/>
<path fill="#5D4A40" opacity="1.000000" stroke="none" 
	d="
M58.346878,55.891808 
	C58.032452,54.925461 57.994278,53.799618 58.238453,52.368927 
	C58.520802,52.064079 59.011833,52.036453 59.333694,52.029461 
	C60.083729,52.009769 60.511906,51.997074 61.240814,51.995895 
	C61.742027,52.015350 61.942505,52.023285 62.142986,52.031216 
	C60.969700,53.264912 59.796417,54.498611 58.346878,55.891808 
z"/>
<path fill="#7F4A3D" opacity="1.000000" stroke="none" 
	d="
M42.259766,71.061218 
	C42.245617,70.709236 42.553516,70.689026 42.977840,70.644913 
	C43.634243,70.083710 43.866322,69.566620 44.098404,69.049538 
	C44.098404,69.049538 44.267971,68.686478 44.351562,68.505058 
	C45.066246,68.208336 45.697342,68.093033 46.651363,67.973328 
	C46.378883,70.442657 45.472874,72.492516 42.259766,71.061218 
z"/>
<path fill="#A65A52" opacity="1.000000" stroke="none" 
	d="
M30.822535,17.030987 
	C30.346407,16.850159 29.870281,16.669329 29.368961,16.156830 
	C29.591061,15.555482 29.838350,15.285804 30.408138,15.011314 
	C31.160557,14.999032 31.590477,14.991563 32.020397,14.984094 
	C33.021576,15.302114 34.022755,15.620136 35.170727,16.178391 
	C35.186054,16.725784 34.968441,16.948889 34.019073,17.101955 
	C32.523159,17.087645 31.672848,17.059317 30.822535,17.030987 
z"/>
<path fill="#CA493D" opacity="1.000000" stroke="none" 
	d="
M43.832794,21.140427 
	C43.350418,20.852011 42.868046,20.563595 42.159309,19.819990 
	C41.914215,19.196777 41.895485,19.028755 41.882210,18.567356 
	C41.871334,18.079042 41.855011,17.884108 41.886341,17.551941 
	C41.933990,17.414707 41.998062,17.131323 41.998062,17.131325 
	C42.433197,17.139818 42.868332,17.148314 43.656013,17.149464 
	C44.008556,17.142118 44.050442,17.101782 44.076862,17.392204 
	C44.013119,18.835228 43.922955,19.987825 43.832794,21.140427 
z"/>
<path fill="#835249" opacity="1.000000" stroke="none" 
	d="
M46.937336,15.912180 
	C47.399780,15.608245 47.862228,15.304310 48.894558,15.016382 
	C49.644852,15.057142 49.825264,15.081894 50.145683,15.274673 
	C50.480541,15.659160 50.684772,15.866372 50.689301,16.231770 
	C49.988033,16.600330 49.495846,16.801462 48.674328,16.992043 
	C47.906178,16.966496 47.467365,16.951494 47.003868,16.680584 
	C46.965240,16.253841 46.951286,16.083012 46.937336,15.912180 
z"/>
<path fill="#818580" opacity="1.000000" stroke="none" 
	d="
M50.005672,15.106647 
	C49.825264,15.081894 49.644852,15.057142 49.193092,15.001886 
	C51.177254,14.748711 53.432762,14.526037 55.791599,14.608154 
	C55.894924,14.912944 55.708889,15.016330 55.434589,15.026253 
	C54.792503,15.045967 54.424717,15.055758 53.651546,15.028191 
	C52.166000,15.029436 51.085835,15.068041 50.005672,15.106647 
z"/>
<path fill="#866F68" opacity="1.000000" stroke="none" 
	d="
M31.811445,14.644119 
	C31.590477,14.991563 31.160557,14.999032 29.946682,15.004561 
	C27.937906,15.029172 26.713085,15.055722 25.488266,15.082273 
	C25.488266,15.082273 25.255991,15.317321 25.088478,15.310217 
	C27.148140,14.970124 29.375317,14.637136 31.811445,14.644119 
z"/>
<path fill="#BB463C" opacity="1.000000" stroke="none" 
	d="
M41.588303,17.020905 
	C41.998062,17.131323 41.933990,17.414707 41.571373,17.593807 
	C40.507282,18.168793 39.805809,18.564680 39.001167,19.004829 
	C38.897991,19.049091 38.690891,19.135836 38.690891,19.135836 
	C38.183304,18.678534 37.675720,18.221231 37.063446,17.532356 
	C38.365353,17.170687 39.771950,17.040586 41.588303,17.020905 
z"/>
<path fill="#4D4038" opacity="1.000000" stroke="none" 
	d="
M62.344353,51.934959 
	C61.942505,52.023285 61.742027,52.015350 61.250607,51.667458 
	C60.966595,50.889206 60.973526,50.450920 60.980461,50.012634 
	C61.521564,50.259464 62.062672,50.506294 62.836670,50.941181 
	C62.969322,51.420639 62.794708,51.657127 62.344353,51.934959 
z"/>
<path fill="#AE4F50" opacity="1.000000" stroke="none" 
	d="
M46.606880,15.947174 
	C46.951286,16.083012 46.965240,16.253841 46.757088,16.713356 
	C46.534985,17.002043 46.041424,17.062634 45.709534,17.069366 
	C44.935242,17.084661 44.492844,17.093222 44.050442,17.101782 
	C44.050442,17.101782 44.008556,17.142118 43.982067,17.128971 
	C44.729195,16.737936 45.502811,16.360052 46.606880,15.947174 
z"/>
<path fill="#6E4338" opacity="1.000000" stroke="none" 
	d="
M49.268944,64.928970 
	C48.992287,64.582558 48.988201,64.135437 49.304901,63.312065 
	C50.025246,62.838848 50.424801,62.741875 50.824360,62.644905 
	C50.824360,62.644909 50.950302,62.870129 51.005054,62.987019 
	C50.553711,63.678696 50.047611,64.253487 49.268944,64.928970 
z"/>
<path fill="#5E4B40" opacity="1.000000" stroke="none" 
	d="
M57.653366,15.155602 
	C57.749954,15.446096 57.522194,15.645664 56.882942,15.783308 
	C56.228882,15.499624 55.968884,15.257977 55.708889,15.016330 
	C55.708889,15.016330 55.894924,14.912944 55.992477,14.955430 
	C56.508839,15.026797 56.927647,15.055679 57.653366,15.155602 
z"/>
<path fill="#A65A52" opacity="1.000000" stroke="none" 
	d="
M36.747108,16.906862 
	C36.497303,17.185553 36.186275,17.087461 35.762115,16.667608 
	C35.957077,16.526543 36.302715,16.587955 36.747108,16.906862 
z"/>
<path fill="#7F4A3D" opacity="1.000000" stroke="none" 
	d="
M48.215530,66.895706 
	C48.026703,66.671936 48.158501,66.413185 48.537415,66.051208 
	C48.623676,66.212479 48.540890,66.516724 48.215530,66.895706 
z"/>
<path fill="#7F4A3D" opacity="1.000000" stroke="none" 
	d="
M47.217064,67.895187 
	C47.072838,67.648903 47.257660,67.386719 47.749939,67.080444 
	C47.799370,67.255577 47.628941,67.536552 47.217064,67.895187 
z"/>
<path fill="#8A4F41" opacity="1.000000" stroke="none" 
	d="
M23.934097,15.225229 
	C23.928434,15.427627 23.496216,15.549478 22.871265,15.536963 
	C22.954872,15.316626 23.231205,15.230654 23.934097,15.225229 
z"/>
<path fill="#BB4A3B" opacity="1.000000" stroke="none" 
	d="
M41.040104,69.274918 
	C41.275375,69.150406 41.535999,69.345085 41.867561,69.823090 
	C41.699837,69.865562 41.408825,69.694786 41.040104,69.274918 
z"/>
<path fill="#BC4637" opacity="1.000000" stroke="none" 
	d="
M50.000732,38.998814 
	C49.960758,37.633678 49.920780,36.268547 49.826668,34.207077 
	C49.498985,33.007946 49.225445,32.505146 48.951904,32.002346 
	C48.436363,30.827631 47.920822,29.652918 47.100204,27.989494 
	C46.547676,26.998587 46.300217,26.496389 46.052757,25.994192 
	C46.027927,25.253111 46.003098,24.512030 46.313244,23.377335 
	C47.126862,22.957727 47.605503,22.931738 48.345146,22.798244 
	C49.072384,22.112839 49.538624,21.534939 50.272766,20.976294 
	C51.389591,21.980007 52.238510,22.964466 53.028713,24.263809 
	C53.618591,29.029400 54.267181,33.480110 54.675941,38.069744 
	C53.950317,38.476288 53.464531,38.743908 52.606628,39.008926 
	C51.489918,39.003819 50.745323,39.001316 50.000732,38.998814 
z"/>
<path fill="#BF4738" opacity="1.000000" stroke="none" 
	d="
M48.182739,59.677116 
	C48.105057,59.969196 47.617119,59.991219 47.374226,60.001846 
	C47.958111,54.865536 48.784889,49.718601 50.184811,44.283195 
	C51.524979,44.000835 52.292007,44.006947 53.181076,44.258141 
	C52.952190,46.858631 51.854462,49.396297 54.871529,50.929741 
	C52.667824,53.748169 50.464119,56.566601 48.182739,59.677116 
z"/>
<path fill="#B24738" opacity="1.000000" stroke="none" 
	d="
M48.084145,22.905746 
	C47.605503,22.931738 47.126862,22.957727 46.288357,23.007345 
	C45.354458,22.543774 44.780426,22.056576 44.019592,21.354900 
	C43.922955,19.987825 44.013119,18.835228 44.076862,17.392204 
	C44.492844,17.093222 44.935242,17.084661 45.953255,17.237633 
	C47.092896,17.597109 47.656925,17.795055 48.373581,18.143425 
	C48.733505,18.490536 48.938503,18.689606 48.984165,19.210789 
	C48.579475,20.655598 48.331810,21.780672 48.084145,22.905746 
z"/>
<path fill="#D9463C" opacity="1.000000" stroke="none" 
	d="
M53.059036,44.013062 
	C52.292007,44.006947 51.524979,44.000835 50.373772,43.990494 
	C49.990810,42.601471 49.992027,41.216679 49.996990,39.415352 
	C50.745323,39.001316 51.489918,39.003819 52.497002,39.316727 
	C52.859337,41.089111 52.959187,42.551086 53.059036,44.013062 
z"/>
<path fill="#D9463C" opacity="1.000000" stroke="none" 
	d="
M45.943516,26.192326 
	C46.300217,26.496389 46.547676,26.998587 46.846851,27.778675 
	C46.543800,27.501198 46.189037,26.945827 45.943516,26.192326 
z"/>
<path fill="#D9463C" opacity="1.000000" stroke="none" 
	d="
M48.860428,32.205780 
	C49.225445,32.505146 49.498985,33.007946 49.814739,33.797585 
	C49.494286,33.526020 49.131618,32.967617 48.860428,32.205780 
z"/>
<path fill="#BB463C" opacity="1.000000" stroke="none" 
	d="
M30.884918,17.266273 
	C31.672848,17.059317 32.523159,17.087645 33.795574,17.180548 
	C33.376163,17.475950 32.534653,17.706776 31.366030,17.958649 
	C31.038919,17.979696 30.947300,17.501560 30.884918,17.266273 
z"/>
<path fill="#AC4941" opacity="1.000000" stroke="none" 
	d="
M41.876755,18.860733 
	C41.895485,19.028755 41.914215,19.196777 41.963345,19.615559 
	C41.095654,19.736738 40.197567,19.607157 38.995186,19.306705 
	C38.690891,19.135836 38.897991,19.049091 39.348015,19.019501 
	C40.490940,18.946850 41.183849,18.903791 41.876755,18.860733 
z"/>
<path fill="#804639" opacity="1.000000" stroke="none" 
	d="
M59.162098,24.940754 
	C61.031284,27.783783 62.900471,30.626814 64.867950,33.722946 
	C64.292580,37.028149 63.618912,40.080254 62.932583,43.542858 
	C62.683060,44.158649 62.463505,44.381027 61.828445,44.679062 
	C60.602921,44.492931 59.810204,44.248234 58.948505,43.688110 
	C58.573334,41.585190 58.267147,39.797695 58.026970,37.692326 
	C58.047646,35.926105 58.002319,34.477760 57.976501,33.011368 
	C57.996014,32.993324 58.031116,32.953415 58.321953,32.784149 
	C58.795895,30.056841 58.978996,27.498796 59.162098,24.940754 
z"/>
<path fill="#9A4939" opacity="1.000000" stroke="none" 
	d="
M57.960960,38.010193 
	C58.267147,39.797695 58.573334,41.585190 59.017723,43.962536 
	C59.439854,45.037613 59.723785,45.522842 60.007717,46.008072 
	C60.043640,47.151344 60.079567,48.294621 59.851906,49.838867 
	C59.353443,50.419327 59.147717,50.627598 58.653404,50.886742 
	C57.913769,50.955055 57.491859,51.001289 57.069950,51.047520 
	C56.581985,51.024471 56.094017,51.001423 55.238792,50.954056 
	C51.854462,49.396297 52.952190,46.858631 53.181080,44.258141 
	C52.959187,42.551086 52.859337,41.089111 52.869118,39.319332 
	C53.464531,38.743908 53.950317,38.476288 54.859180,38.120331 
	C56.175156,38.024731 57.068058,38.017464 57.960960,38.010193 
z"/>
<path fill="#7F4936" opacity="1.000000" stroke="none" 
	d="
M60.281242,45.940399 
	C59.723785,45.522842 59.439854,45.037613 59.086708,44.277958 
	C59.810204,44.248234 60.602921,44.492931 61.681114,44.861839 
	C61.495983,45.281605 61.025379,45.577168 60.281242,45.940399 
z"/>
<path fill="#794B3E" opacity="1.000000" stroke="none" 
	d="
M58.971130,50.864658 
	C59.147717,50.627598 59.353443,50.419327 59.768990,50.114845 
	C60.121540,49.993752 60.293415,49.997662 60.722878,50.007103 
	C60.973526,50.450920 60.966595,50.889206 60.949875,51.655933 
	C60.511906,51.997074 60.083729,52.009769 59.322289,51.736328 
	C58.983059,51.255013 58.977093,51.059837 58.971130,50.864658 
z"/>
<path fill="#924638" opacity="1.000000" stroke="none" 
	d="
M58.026966,37.692322 
	C57.068058,38.017464 56.175156,38.024731 55.099014,37.981407 
	C54.267181,33.480110 53.618591,29.029400 53.353920,24.202652 
	C55.490429,23.866318 57.243015,23.906019 58.995602,23.945721 
	C59.023796,24.111584 59.051994,24.277447 59.121147,24.692032 
	C58.978996,27.498796 58.795895,30.056841 58.290401,32.749523 
	C57.968010,32.884163 57.956989,33.029411 57.956989,33.029411 
	C58.002319,34.477760 58.047646,35.926105 58.026966,37.692322 
z"/>
<path fill="#7F483A" opacity="1.000000" stroke="none" 
	d="
M58.917980,23.585312 
	C57.243015,23.906019 55.490429,23.866318 53.412636,23.887770 
	C52.238510,22.964466 51.389591,21.980007 50.272713,20.646378 
	C50.000195,19.856367 49.995632,19.415527 49.999054,18.985828 
	C50.007042,18.996973 49.980732,18.993393 50.233292,18.995234 
	C50.654232,18.997265 50.822613,18.997458 51.208187,18.889908 
	C51.621410,17.875641 51.817440,16.969122 52.287109,15.978355 
	C53.059479,15.617923 53.558205,15.341736 54.056931,15.065550 
	C54.424717,15.055758 54.792503,15.045967 55.434589,15.026253 
	C55.968884,15.257977 56.228882,15.499624 56.694530,15.910446 
	C57.546909,18.461382 58.193634,20.843142 58.917980,23.585312 
M55.475319,18.504498 
	C55.475319,18.504498 55.515842,18.491625 55.475319,18.504498 
z"/>
<path fill="#9F473C" opacity="1.000000" stroke="none" 
	d="
M50.727306,62.411606 
	C50.424801,62.741875 50.025246,62.838848 49.319641,62.977203 
	C49.017395,62.559750 49.021194,62.100918 49.042351,61.297882 
	C49.583218,61.361889 50.106735,61.770096 50.727306,62.411606 
z"/>
<path fill="#633F2B" opacity="1.000000" stroke="none" 
	d="
M58.653404,50.886742 
	C58.977093,51.059837 58.983059,51.255013 59.000427,51.743324 
	C59.011833,52.036453 58.520802,52.064079 58.275955,52.081100 
	C57.770142,51.910297 57.537029,51.692638 57.200863,51.246330 
	C57.491859,51.001289 57.913769,50.955055 58.653404,50.886742 
z"/>
<path fill="#8A4F41" opacity="1.000000" stroke="none" 
	d="
M25.754482,15.353188 
	C26.713085,15.055722 27.937906,15.029172 29.624182,15.009375 
	C29.838350,15.285804 29.591061,15.555482 29.152082,16.021719 
	C27.980495,16.020220 27.000595,15.822162 25.754482,15.353188 
z"/>
<path fill="#D75248" opacity="1.000000" stroke="none" 
	d="
M44.288094,65.876907 
	C44.137009,65.626099 44.084393,65.175446 44.013214,64.386047 
	C44.125286,64.590546 44.255920,65.133804 44.288094,65.876907 
z"/>
<path fill="#BB4A3B" opacity="1.000000" stroke="none" 
	d="
M43.890961,69.224609 
	C43.866322,69.566620 43.634243,70.083710 43.125336,70.690155 
	C43.126842,70.319580 43.405178,69.859627 43.890961,69.224609 
z"/>
<path fill="#75534E" opacity="1.000000" stroke="none" 
	d="
M41.882210,18.567356 
	C41.183849,18.903791 40.490940,18.946850 39.451187,18.975237 
	C39.805809,18.564680 40.507282,18.168793 41.523724,17.731041 
	C41.855011,17.884108 41.871334,18.079042 41.882210,18.567356 
z"/>
<path fill="#77432B" opacity="1.000000" stroke="none" 
	d="
M52.013470,16.062603 
	C51.817440,16.969122 51.621410,17.875641 51.090443,18.809166 
	C50.467812,18.719414 50.209557,18.771822 49.980732,18.993393 
	C49.980732,18.993393 50.007042,18.996973 49.787361,18.957214 
	C49.567680,18.917458 49.141186,18.891054 49.141186,18.891054 
	C48.938503,18.689606 48.733505,18.490536 48.513084,17.987938 
	C48.677532,17.462715 48.845428,17.236237 49.003662,17.002592 
	C49.495846,16.801462 49.988033,16.600330 50.968548,16.226395 
	C51.642410,16.056597 51.827942,16.059601 52.013470,16.062603 
z"/>
<path fill="#5E4B40" opacity="1.000000" stroke="none" 
	d="
M52.287109,15.978355 
	C51.827942,16.059601 51.642410,16.056597 51.177635,16.058964 
	C50.684772,15.866372 50.480541,15.659160 50.145683,15.274673 
	C51.085835,15.068041 52.166000,15.029436 53.651546,15.028190 
	C53.558205,15.341736 53.059479,15.617923 52.287109,15.978355 
z"/>
<path fill="#9F4636" opacity="1.000000" stroke="none" 
	d="
M48.674328,16.992043 
	C48.845428,17.236237 48.677532,17.462715 48.360466,17.837515 
	C47.656925,17.795055 47.092896,17.597109 46.285141,17.230900 
	C46.041424,17.062634 46.534985,17.002043 46.781769,16.969269 
	C47.467365,16.951494 47.906178,16.966496 48.674328,16.992043 
z"/>
<path fill="#9F4636" opacity="1.000000" stroke="none" 
	d="
M48.984165,19.210789 
	C49.141186,18.891054 49.567680,18.917458 49.779373,18.946072 
	C49.995632,19.415527 50.000195,19.856367 50.004810,20.627125 
	C49.538624,21.534939 49.072384,22.112839 48.345146,22.798243 
	C48.331810,21.780672 48.579475,20.655598 48.984165,19.210789 
z"/>
<path fill="#804639" opacity="1.000000" stroke="none" 
	d="
M57.976501,33.011368 
	C57.956989,33.029411 57.968010,32.884163 57.999565,32.918789 
	C58.031116,32.953415 57.996014,32.993324 57.976501,33.011368 
z"/>
<path fill="#9F4636" opacity="1.000000" stroke="none" 
	d="
M50.233292,18.995234 
	C50.209557,18.771822 50.467812,18.719414 50.873249,18.916910 
	C50.822613,18.997458 50.654232,18.997265 50.233292,18.995234 
z"/>
<path fill="#694533" opacity="1.000000" stroke="none" 
	d="
M55.495583,18.498062 
	C55.515842,18.491625 55.475319,18.504498 55.495583,18.498062 
z"/>
</svg>