<svg version="1.1" id="Layer_1" xmlns="http://www.w3.org/2000/svg" xmlns:xlink="http://www.w3.org/1999/xlink" x="0px" y="0px"
	 width="100%" viewBox="0 0 80 80" enable-background="new 0 0 80 80" xml:space="preserve">
<path fill="#000000" opacity="1.000000" stroke="none" 
	d="
M54.000004,81.000000 
	C36.000000,81.000000 18.500000,81.000000 1.000000,81.000000 
	C1.000000,54.333332 1.000000,27.666666 1.000000,1.000000 
	C27.666666,1.000000 54.333332,1.000000 81.000000,1.000000 
	C81.000000,27.666666 81.000000,54.333332 81.000000,81.000000 
	C72.166672,81.000000 63.333340,81.000000 54.000004,81.000000 
M61.986813,61.512218 
	C61.986813,61.512218 62.064617,61.043797 62.651875,60.748539 
	C63.452297,59.503601 64.252716,58.258663 65.505592,56.970848 
	C65.505592,56.970848 65.943779,56.846909 66.695724,56.875626 
	C71.724121,52.787121 71.399811,45.305317 65.478714,39.056114 
	C65.478714,39.056114 65.018814,38.955517 64.775002,38.369793 
	C60.274467,29.904388 59.271652,20.729549 60.039711,11.195527 
	C59.587276,10.926228 59.134846,10.656928 58.682411,10.387629 
	C56.842720,11.593296 55.003033,12.798965 52.716476,14.579581 
	C51.414665,14.970306 50.112854,15.361031 48.257088,15.492126 
	C46.868446,13.975188 45.479805,12.458249 44.021675,10.212967 
	C42.687859,10.114954 41.354046,10.016940 39.380695,10.205349 
	C37.896095,11.655920 36.565460,13.336716 34.869347,14.471007 
	C33.846321,15.155163 32.065388,15.506710 30.958374,15.100108 
	C28.554798,14.217281 26.365080,12.752213 23.236971,11.066656 
	C23.236971,15.305607 23.521448,18.293655 23.157858,21.200644 
	C22.785944,24.174164 22.000849,27.147182 20.994797,29.977596 
	C19.658655,33.736691 17.933212,37.357407 16.065016,41.487392 
	C16.092665,41.667385 16.120314,41.847374 15.802732,42.690212 
	C12.001234,47.910816 12.040214,50.960564 16.005739,56.844929 
	C21.872101,65.064171 29.044632,67.179428 37.583927,62.167694 
	C37.476574,64.499550 37.704945,66.910873 37.176537,69.143051 
	C36.522072,71.907753 35.540997,74.439301 39.503738,76.101250 
	C41.304169,73.716866 43.571808,71.524422 44.678185,68.851334 
	C45.123547,67.775291 42.956085,65.678589 42.121014,63.976139 
	C41.858265,63.440475 42.061970,62.676006 42.748928,62.005993 
	C43.844200,62.316654 44.939472,62.627316 46.617802,63.219994 
	C47.411209,63.450340 48.204617,63.680683 49.671379,64.298187 
	C54.002022,64.858910 58.561089,66.625130 61.986813,61.512218 
z"/>
<path fill="#ECE619" opacity="1.000000" stroke="none" 
	d="
M16.375038,41.037579 
	C17.933212,37.357407 19.658655,33.736691 20.994797,29.977596 
	C22.000849,27.147182 22.785944,24.174164 23.157858,21.200644 
	C23.521448,18.293655 23.236971,15.305607 23.236971,11.066656 
	C26.365080,12.752213 28.554798,14.217281 30.958374,15.100108 
	C32.065388,15.506710 33.846321,15.155163 34.869347,14.471007 
	C36.565460,13.336716 37.896095,11.655920 40.014511,10.352229 
	C40.773460,14.992960 40.898594,19.486811 40.652256,24.000889 
	C36.196037,23.506407 32.111282,22.991693 28.026531,22.476982 
	C27.918362,22.671408 27.810192,22.865831 27.702023,23.060255 
	C30.554491,24.387312 33.406960,25.714369 36.467136,27.138058 
	C37.455696,26.565266 38.722404,25.831306 40.085007,25.379377 
	C40.553440,26.118589 40.925980,26.575771 41.222870,27.449795 
	C41.219898,29.545053 41.292576,31.223465 41.298035,33.303699 
	C41.151314,34.788418 41.071808,35.871311 40.763523,37.025146 
	C40.238632,37.279827 40.089520,37.545860 39.804520,38.052589 
	C39.301895,38.810593 39.082153,39.410191 38.687489,39.880814 
	C38.293873,39.555271 38.121819,39.324005 37.964493,38.683475 
	C33.574001,37.071224 29.215416,35.833534 24.856833,34.595848 
	C24.860500,35.081459 24.864168,35.567074 24.587475,35.976376 
	C23.087954,36.161713 21.622236,36.086700 20.703968,36.759201 
	C19.084929,37.944923 17.799902,39.586720 16.375038,41.037579 
z"/>
<path fill="#F8F107" opacity="1.000000" stroke="none" 
	d="
M37.086136,61.831848 
	C29.044632,67.179428 21.872101,65.064171 16.014418,56.103382 
	C15.962370,51.971512 18.769444,48.751068 16.275198,44.931400 
	C18.667908,50.361904 23.390142,51.593014 28.044214,53.303474 
	C29.101906,53.175804 30.081619,52.781326 31.432407,52.294701 
	C34.226273,52.422543 36.649063,52.642532 39.375504,53.012020 
	C39.994747,54.831718 40.310337,56.501923 40.312782,58.291115 
	C39.652603,58.943596 39.305573,59.477081 38.704884,60.106102 
	C37.996197,60.745041 37.541164,61.288445 37.086136,61.831848 
z"/>
<path fill="#307E4F" opacity="1.000000" stroke="none" 
	d="
M53.163342,14.004631 
	C55.003033,12.798965 56.842720,11.593296 58.682411,10.387629 
	C59.134846,10.656928 59.587276,10.926228 60.039711,11.195527 
	C59.271652,20.729549 60.274467,29.904388 64.893616,39.131935 
	C64.997971,44.605900 64.983719,49.317722 64.751511,54.226646 
	C64.695999,55.280426 64.858444,56.137112 65.023842,57.001957 
	C65.026794,57.010120 65.053139,57.013725 65.053139,57.013725 
	C64.252716,58.258663 63.452297,59.503601 62.102081,60.575729 
	C61.365936,58.104286 61.048340,55.806965 61.025421,53.506706 
	C60.994610,50.414913 59.793224,49.541767 57.018944,50.626221 
	C57.012794,49.482410 57.010212,48.719860 57.139393,47.673382 
	C57.514114,46.594341 57.757069,45.799232 58.000786,44.555061 
	C58.088558,39.601177 58.495464,35.072777 58.165848,30.598640 
	C57.879250,26.708418 56.760090,22.879532 55.767429,19.050205 
	C55.350914,19.716640 55.175816,20.356407 54.671066,21.000248 
	C53.902206,21.013060 53.462994,21.021801 53.023975,20.660107 
	C53.595257,19.026661 54.457462,17.800756 54.625023,16.486303 
	C54.720997,15.733422 53.688038,14.836632 53.163342,14.004631 
z"/>
<path fill="#FAF409" opacity="1.000000" stroke="none" 
	d="
M16.220028,41.262486 
	C17.799902,39.586720 19.084929,37.944923 20.703968,36.759201 
	C21.622236,36.086700 23.087954,36.161713 24.651934,36.157127 
	C24.996752,36.414185 25.071106,36.790791 25.264286,37.053444 
	C26.633724,37.259003 27.809984,37.201908 29.266766,37.232899 
	C30.395229,38.108334 31.243170,38.895683 31.901396,39.918167 
	C30.654818,40.365940 29.597954,40.578583 28.255604,40.848667 
	C28.869238,43.040688 29.425091,45.026302 29.667709,47.004784 
	C28.300806,46.790096 26.599123,46.067703 26.292496,46.453651 
	C22.753052,50.908691 21.321854,47.110882 19.368876,44.899132 
	C18.423563,43.828564 17.229435,42.977699 16.147961,42.027359 
	C16.120314,41.847374 16.092665,41.667385 16.220028,41.262486 
z"/>
<path fill="#326D46" opacity="1.000000" stroke="none" 
	d="
M48.998024,63.911030 
	C48.204617,63.680683 47.411209,63.450340 46.298645,62.738670 
	C45.993793,58.164173 46.008099,54.070999 46.398861,49.954876 
	C47.518555,48.288692 48.261791,46.645466 49.378220,45.001091 
	C50.496723,45.001263 51.242035,45.002583 51.983429,45.336884 
	C51.975208,46.113831 51.970905,46.557804 51.852009,47.109268 
	C51.591381,47.537365 51.676113,47.798729 52.235455,48.231438 
	C53.193882,49.234619 54.669609,50.300785 54.502743,50.733429 
	C53.154495,54.229111 51.497555,57.605732 49.684452,61.072433 
	C49.288734,62.054459 49.143379,62.982746 48.998024,63.911030 
z"/>
<path fill="#E7E320" opacity="1.000000" stroke="none" 
	d="
M15.975346,42.358788 
	C17.229435,42.977699 18.423563,43.828564 19.368876,44.899132 
	C21.321854,47.110882 22.753052,50.908691 26.292496,46.453651 
	C26.599123,46.067703 28.300806,46.790096 29.668446,47.333305 
	C29.993568,48.107262 30.004715,48.545563 29.754370,49.043007 
	C29.333363,50.063232 29.173849,51.024315 29.005783,51.994072 
	C28.997229,52.002747 28.980043,52.020016 28.785950,52.144699 
	C28.349751,52.466938 28.157879,52.704990 28.003757,52.996475 
	C27.991276,53.009415 27.966234,53.036671 27.966234,53.036671 
	C23.390142,51.593014 18.667908,50.361904 16.275198,44.931400 
	C18.769444,48.751068 15.962370,51.971512 15.998915,55.754616 
	C12.040214,50.960564 12.001234,47.910816 15.975346,42.358788 
z"/>
<path fill="#487C5A" opacity="1.000000" stroke="none" 
	d="
M37.335030,61.999771 
	C37.541164,61.288445 37.996197,60.745041 38.759693,60.348541 
	C40.062832,61.002380 41.057507,61.509323 42.052181,62.016262 
	C42.061970,62.676006 41.858265,63.440475 42.121014,63.976139 
	C42.956085,65.678589 45.123547,67.775291 44.678185,68.851334 
	C43.571808,71.524422 41.304169,73.716866 39.503738,76.101250 
	C35.540997,74.439301 36.522072,71.907753 37.176537,69.143051 
	C37.704945,66.910873 37.476574,64.499550 37.335030,61.999771 
z"/>
<path fill="#405E3E" opacity="1.000000" stroke="none" 
	d="
M42.400555,62.011127 
	C41.057507,61.509323 40.062832,61.002380 39.013348,60.253006 
	C39.305573,59.477081 39.652603,58.943596 40.631401,58.200558 
	C41.804722,57.076824 42.764927,56.184460 42.813919,55.244598 
	C43.005619,51.567207 42.909405,47.874809 43.151062,43.931625 
	C44.240379,43.461094 45.098816,43.246929 45.961845,43.467285 
	C45.985088,45.927147 46.003746,47.952488 46.022404,49.977829 
	C46.008099,54.070999 45.993793,58.164173 46.007118,62.597660 
	C44.939472,62.627316 43.844200,62.316654 42.400555,62.011127 
z"/>
<path fill="#2D8051" opacity="1.000000" stroke="none" 
	d="
M44.091160,10.941311 
	C45.479805,12.458249 46.868446,13.975188 48.593803,15.698923 
	C48.930523,15.905721 49.043625,16.063683 49.027237,16.492481 
	C48.235542,19.380814 51.008247,23.352480 45.759399,23.745773 
	C45.093197,22.219358 44.659603,20.951729 44.226009,19.684097 
	C43.940609,19.718626 43.655212,19.753153 43.369816,19.787680 
	C43.225304,21.198645 43.080795,22.609608 42.709045,23.680378 
	C42.602684,19.153286 39.952160,14.606664 44.091160,10.941311 
M43.461510,15.669468 
	C43.608658,15.845853 43.755810,16.022238 43.902958,16.198624 
	C44.006252,16.098835 44.109543,15.999047 44.212837,15.899258 
	C44.040962,15.746554 43.869091,15.593850 43.461510,15.669468 
z"/>
<path fill="#397D58" opacity="1.000000" stroke="none" 
	d="
M65.929237,39.192669 
	C71.399811,45.305317 71.724121,52.787121 66.335350,56.404091 
	C65.959732,50.352592 65.944489,44.772629 65.929237,39.192669 
z"/>
<path fill="#3A704C" opacity="1.000000" stroke="none" 
	d="
M49.334702,64.104607 
	C49.143379,62.982746 49.288734,62.054459 49.857353,61.336262 
	C51.999481,61.969830 53.718342,62.393314 55.394802,62.806355 
	C55.994305,57.286831 56.500965,52.622070 57.007626,47.957310 
	C57.010212,48.719860 57.012794,49.482410 57.015633,51.049942 
	C57.319950,53.915920 57.824139,55.971615 57.878937,58.039215 
	C57.952415,60.811565 58.907124,62.353306 61.905289,61.980011 
	C58.561089,66.625130 54.002022,64.858910 49.334702,64.104607 
z"/>
<path fill="#2C8951" opacity="1.000000" stroke="none" 
	d="
M61.946053,61.746117 
	C58.907124,62.353306 57.952415,60.811565 57.878937,58.039215 
	C57.824139,55.971615 57.319950,53.915920 57.019199,51.431202 
	C59.793224,49.541767 60.994610,50.414913 61.025421,53.506706 
	C61.048340,55.806965 61.365936,58.104286 61.808449,60.723358 
	C62.064617,61.043797 61.986813,61.512218 61.946053,61.746117 
z"/>
<path fill="#47824B" opacity="1.000000" stroke="none" 
	d="
M44.056419,10.577139 
	C39.952160,14.606664 42.602684,19.153286 42.713264,24.140121 
	C42.956310,26.867769 43.229614,28.840136 42.910328,30.711390 
	C42.547222,32.839462 41.654697,34.877201 40.992302,36.954208 
	C41.071808,35.871311 41.151314,34.788418 41.463844,33.010845 
	C41.564087,30.555098 41.431305,28.794024 41.298523,27.032951 
	C40.925980,26.575771 40.553440,26.118589 40.345314,25.281460 
	C40.681061,24.594561 40.852390,24.287611 41.023724,23.980661 
	C40.898594,19.486811 40.773460,14.992960 40.334278,10.209018 
	C41.354046,10.016940 42.687859,10.114954 44.056419,10.577139 
z"/>
<path fill="#298650" opacity="1.000000" stroke="none" 
	d="
M52.939911,14.292107 
	C53.688038,14.836632 54.720997,15.733422 54.625023,16.486303 
	C54.457462,17.800756 53.595257,19.026661 52.883724,20.858612 
	C52.531315,21.678911 52.279984,21.881432 51.934616,21.691721 
	C50.934498,19.586781 49.989059,17.825232 49.043625,16.063683 
	C49.043625,16.063683 48.930523,15.905721 48.870781,15.828737 
	C50.112854,15.361031 51.414665,14.970306 52.939911,14.292107 
z"/>
<path fill="#22995A" opacity="1.000000" stroke="none" 
	d="
M65.703979,39.124390 
	C65.944489,44.772629 65.959732,50.352592 65.959381,56.389732 
	C65.943779,56.846909 65.505592,56.970848 65.279366,56.992287 
	C65.053139,57.013725 65.026794,57.010120 65.014832,56.631020 
	C64.991737,55.511131 64.980606,54.770340 64.969467,54.029549 
	C64.983719,49.317722 64.997971,44.605900 65.015518,39.424797 
	C65.018814,38.955517 65.478714,39.056114 65.703979,39.124390 
z"/>
<path fill="#F8F105" opacity="1.000000" stroke="none" 
	d="
M30.015863,48.983868 
	C30.004715,48.545563 29.993568,48.107262 29.981684,47.340439 
	C29.425091,45.026302 28.869238,43.040688 28.255604,40.848667 
	C29.597954,40.578583 30.654818,40.365940 32.251755,39.812908 
	C34.526688,39.334358 36.261547,39.196198 37.996407,39.058037 
	C38.121819,39.324005 38.293873,39.555271 38.784515,40.260498 
	C38.701702,44.169468 38.346947,47.569767 37.591259,50.993660 
	C36.120869,51.013344 35.051414,51.009430 33.993233,50.775658 
	C34.004513,50.545795 33.951996,50.088573 33.965218,49.739998 
	C33.983826,48.926357 33.989212,48.461285 34.079308,47.954758 
	C34.164017,47.913296 34.178600,47.697128 34.178600,47.697128 
	C34.178600,47.697128 34.004162,48.005764 33.655304,48.002975 
	C32.209587,48.328079 31.112726,48.655975 30.015863,48.983868 
z"/>
<path fill="#658B48" opacity="1.000000" stroke="none" 
	d="
M37.992191,50.970070 
	C38.346947,47.569767 38.701702,44.169468 38.959435,40.389477 
	C39.082153,39.410191 39.301895,38.810593 40.132133,38.074760 
	C41.469082,38.610519 42.195538,39.282513 42.793991,40.254913 
	C42.750725,41.766212 42.835453,42.977100 42.920189,44.187988 
	C42.909405,47.874809 43.005619,51.567207 42.813919,55.244598 
	C42.764927,56.184460 41.804722,57.076824 40.944542,58.081566 
	C40.310337,56.501923 39.994747,54.831718 39.227921,52.781944 
	C38.515182,51.924934 38.253689,51.447502 37.992191,50.970070 
z"/>
<path fill="#405E3E" opacity="1.000000" stroke="none" 
	d="
M42.921993,39.954506 
	C42.195538,39.282513 41.469082,38.610519 40.415012,37.916359 
	C40.089520,37.545860 40.238632,37.279827 40.763523,37.025146 
	C41.654697,34.877201 42.547222,32.839462 42.910328,30.711390 
	C43.229614,28.840136 42.956310,26.867769 42.940502,24.480316 
	C43.080795,22.609608 43.225304,21.198645 43.369816,19.787680 
	C43.655212,19.753153 43.940609,19.718626 44.226009,19.684097 
	C44.659603,20.951729 45.093197,22.219358 45.765198,24.142576 
	C45.995041,25.856777 45.986481,26.915388 45.971764,28.420483 
	C45.978909,31.242743 45.992203,33.618519 46.004513,36.371788 
	C46.008213,37.504486 46.012897,38.259686 46.010342,39.256714 
	C46.003101,39.498535 45.987808,39.982159 45.795467,39.806938 
	C45.252792,39.095554 44.902462,38.559391 44.538239,38.001972 
	C43.956547,38.704697 43.439270,39.329601 42.921993,39.954506 
z"/>
<path fill="#B5B233" opacity="1.000000" stroke="none" 
	d="
M37.964493,38.683475 
	C36.261547,39.196198 34.526688,39.334358 32.441467,39.577774 
	C31.243170,38.895683 30.395229,38.108334 28.876860,37.186150 
	C27.161322,36.964478 26.116215,36.877632 25.071106,36.790787 
	C25.071106,36.790791 24.996752,36.414185 24.932293,36.233437 
	C24.864168,35.567074 24.860500,35.081459 24.856833,34.595848 
	C29.215416,35.833534 33.574001,37.071224 37.964493,38.683475 
z"/>
<path fill="#C3C030" opacity="1.000000" stroke="none" 
	d="
M40.652256,24.000889 
	C40.852390,24.287611 40.681061,24.594561 40.249420,24.999428 
	C38.722404,25.831306 37.455696,26.565266 36.467136,27.138058 
	C33.406960,25.714369 30.554491,24.387312 27.702023,23.060255 
	C27.810192,22.865831 27.918362,22.671408 28.026531,22.476982 
	C32.111282,22.991693 36.196037,23.506407 40.652256,24.000889 
z"/>
<path fill="#658B48" opacity="1.000000" stroke="none" 
	d="
M41.222870,27.449795 
	C41.431305,28.794024 41.564087,30.555098 41.531059,32.609024 
	C41.292576,31.223465 41.219898,29.545053 41.222870,27.449795 
z"/>
<path fill="#A3A332" opacity="1.000000" stroke="none" 
	d="
M37.591259,50.993660 
	C38.253689,51.447502 38.515182,51.924934 38.924263,52.632446 
	C36.649063,52.642532 34.226273,52.422543 31.103580,52.211708 
	C30.184673,52.164814 29.965675,52.108768 29.894909,51.785042 
	C30.591787,51.311996 31.140434,51.106640 32.071564,50.928318 
	C32.963352,50.972076 33.472652,50.988796 33.981956,51.005520 
	C35.051414,51.009430 36.120869,51.013344 37.591259,50.993660 
z"/>
<path fill="#E7E320" opacity="1.000000" stroke="none" 
	d="
M29.746675,52.052727 
	C29.965675,52.108768 30.184673,52.164814 30.732502,52.303856 
	C30.081619,52.781326 29.101906,53.175804 28.044214,53.303474 
	C27.966234,53.036671 27.991276,53.009415 28.197536,52.871521 
	C28.649065,52.538708 28.841146,52.300835 28.980043,52.020016 
	C28.980043,52.020016 28.997229,52.002747 29.188780,52.011299 
	C29.380331,52.019848 29.746675,52.052727 29.746675,52.052727 
z"/>
<path fill="#2F7247" opacity="1.000000" stroke="none" 
	d="
M51.989296,22.035114 
	C52.279984,21.881432 52.531315,21.678911 52.883533,21.229046 
	C53.462994,21.021801 53.902206,21.013060 54.885017,20.809233 
	C55.622028,20.083944 55.815437,19.553741 56.008850,19.023540 
	C56.760090,22.879532 57.879250,26.708418 58.165848,30.598640 
	C58.495464,35.072777 58.088558,39.601177 57.642952,44.426868 
	C56.856968,43.455120 56.052849,42.155117 56.078041,40.871387 
	C56.136391,37.897789 54.848305,36.740929 51.921288,36.690109 
	C50.888908,35.910988 49.947304,35.456741 49.007660,34.666641 
	C49.013908,33.883003 49.018188,33.435215 49.340134,32.894241 
	C49.443195,31.536760 49.228596,30.272459 49.011299,28.673727 
	C49.007797,27.893398 49.006996,27.447502 49.383110,26.972036 
	C50.503117,25.306683 51.246208,23.670898 51.989296,22.035114 
z"/>
<path fill="#29854F" opacity="1.000000" stroke="none" 
	d="
M52.012062,37.014984 
	C54.848305,36.740929 56.136391,37.897789 56.078041,40.871387 
	C56.052849,42.155117 56.856968,43.455120 57.642189,44.875923 
	C57.757069,45.799232 57.514114,46.594341 57.139393,47.673382 
	C56.500965,52.622070 55.994305,57.286831 55.394802,62.806355 
	C53.718342,62.393314 51.999481,61.969830 50.107719,61.282516 
	C51.497555,57.605732 53.154495,54.229111 54.502743,50.733429 
	C54.669609,50.300785 53.193882,49.234619 52.232399,47.981598 
	C51.985485,47.501175 51.966606,47.001778 51.966606,47.001778 
	C51.970905,46.557804 51.975208,46.113831 51.987991,44.918831 
	C51.981998,42.773666 51.967529,41.379528 51.964851,39.614300 
	C51.988453,38.500469 52.000259,37.757729 52.012062,37.014984 
z"/>
<path fill="#2A5D34" opacity="1.000000" stroke="none" 
	d="
M64.751511,54.226646 
	C64.980606,54.770340 64.991737,55.511131 65.011879,56.622856 
	C64.858444,56.137112 64.695999,55.280426 64.751511,54.226646 
z"/>
<path fill="#298650" opacity="1.000000" stroke="none" 
	d="
M55.767433,19.050205 
	C55.815437,19.553741 55.622028,20.083944 55.214668,20.805161 
	C55.175816,20.356407 55.350914,19.716640 55.767433,19.050205 
z"/>
<path fill="#ECE619" opacity="1.000000" stroke="none" 
	d="
M25.264286,37.053444 
	C26.116215,36.877632 27.161322,36.964478 28.596336,37.098068 
	C27.809984,37.201908 26.633724,37.259003 25.264286,37.053444 
z"/>
<path fill="#2A7F4B" opacity="1.000000" stroke="none" 
	d="
M45.987808,39.982159 
	C45.987808,39.982159 46.003101,39.498535 46.287888,39.220280 
	C47.390034,39.291306 48.207394,39.640591 49.014164,40.407547 
	C49.004059,42.217560 49.004543,43.609898 49.005028,45.002235 
	C48.261791,46.645466 47.518555,48.288692 46.398861,49.954876 
	C46.003746,47.952488 45.985088,45.927147 45.976612,43.085693 
	C45.987133,41.507103 45.987473,40.744633 45.987808,39.982159 
z"/>
<path fill="#2F7247" opacity="1.000000" stroke="none" 
	d="
M49.378220,45.001091 
	C49.004543,43.609898 49.004059,42.217560 49.380241,40.410492 
	C50.488953,39.992302 51.221004,39.988846 51.953056,39.985390 
	C51.967529,41.379528 51.981998,42.773666 51.991909,44.585857 
	C51.242035,45.002583 50.496723,45.001263 49.378220,45.001091 
z"/>
<path fill="#2F7247" opacity="1.000000" stroke="none" 
	d="
M51.852009,47.109268 
	C51.966606,47.001778 51.985485,47.501175 51.988541,47.751015 
	C51.676113,47.798729 51.591381,47.537365 51.852009,47.109268 
z"/>
<path fill="#E2DA28" opacity="1.000000" stroke="none" 
	d="
M29.894909,51.785042 
	C29.746675,52.052727 29.380331,52.019848 29.197334,52.002625 
	C29.173849,51.024315 29.333363,50.063232 29.754370,49.043007 
	C31.112726,48.655975 32.209587,48.328079 33.653229,48.000114 
	C34.000004,48.000050 33.994598,47.996216 33.994598,47.996216 
	C33.989212,48.461285 33.983826,48.926357 33.644684,49.704243 
	C32.770313,50.311802 32.229698,50.606541 31.689081,50.901283 
	C31.140434,51.106640 30.591787,51.311996 29.894909,51.785042 
z"/>
<path fill="#E2DA28" opacity="1.000000" stroke="none" 
	d="
M28.785950,52.144699 
	C28.841146,52.300835 28.649065,52.538708 28.210018,52.858582 
	C28.157879,52.704990 28.349751,52.466938 28.785950,52.144699 
z"/>
<path fill="#326D46" opacity="1.000000" stroke="none" 
	d="
M45.795471,39.806938 
	C45.987473,40.744633 45.987133,41.507103 45.972023,42.651173 
	C45.098816,43.246929 44.240379,43.461094 43.151062,43.931625 
	C42.835453,42.977100 42.750725,41.766212 42.793991,40.254913 
	C43.439270,39.329601 43.956547,38.704697 44.538239,38.001972 
	C44.902462,38.559391 45.252792,39.095554 45.795471,39.806938 
z"/>
<path fill="#326D46" opacity="1.000000" stroke="none" 
	d="
M51.934616,21.691721 
	C51.246208,23.670898 50.503117,25.306683 49.333958,26.755718 
	C47.931229,27.037313 46.954571,27.505655 45.977917,27.973999 
	C45.986481,26.915388 45.995041,25.856777 45.997803,24.401361 
	C51.008247,23.352480 48.235542,19.380814 49.027237,16.492481 
	C49.989059,17.825232 50.934498,19.586781 51.934616,21.691721 
z"/>
<path fill="#47824B" opacity="1.000000" stroke="none" 
	d="
M43.579361,15.555307 
	C43.869091,15.593850 44.040962,15.746554 44.212837,15.899258 
	C44.109543,15.999047 44.006252,16.098835 43.902958,16.198624 
	C43.755810,16.022238 43.608658,15.845853 43.579361,15.555307 
z"/>
<path fill="#9C933C" opacity="1.000000" stroke="none" 
	d="
M32.071564,50.928318 
	C32.229698,50.606541 32.770313,50.311802 33.631462,50.052818 
	C33.951996,50.088573 34.004513,50.545795 33.993233,50.775658 
	C33.472652,50.988796 32.963352,50.972076 32.071564,50.928318 
z"/>
<path fill="#E2DA28" opacity="1.000000" stroke="none" 
	d="
M34.002083,48.002907 
	C34.004162,48.005764 34.178600,47.697128 34.178600,47.697128 
	C34.178600,47.697128 34.164017,47.913296 34.079308,47.954758 
	C33.994598,47.996216 34.000004,48.000050 34.002083,48.002907 
z"/>
<path fill="#2A814D" opacity="1.000000" stroke="none" 
	d="
M45.971764,28.420483 
	C46.954571,27.505655 47.931229,27.037313 48.957039,26.785290 
	C49.006996,27.447502 49.007797,27.893398 49.006237,29.071609 
	C49.010075,30.865091 49.016273,31.926258 49.022472,32.987427 
	C49.018188,33.435215 49.013908,33.883003 48.769203,34.890118 
	C47.687683,35.631062 46.846592,35.812679 46.005497,35.994297 
	C45.992203,33.618519 45.978909,31.242743 45.971764,28.420483 
z"/>
<path fill="#326D46" opacity="1.000000" stroke="none" 
	d="
M46.004513,36.371788 
	C46.846592,35.812679 47.687683,35.631062 48.767235,35.225967 
	C49.947304,35.456741 50.888908,35.910988 51.921288,36.690109 
	C52.000259,37.757729 51.988453,38.500469 51.964851,39.614304 
	C51.221004,39.988846 50.488953,39.992302 49.390823,39.992821 
	C48.207394,39.640591 47.390034,39.291306 46.295128,38.978455 
	C46.012897,38.259686 46.008213,37.504486 46.004513,36.371788 
z"/>
<path fill="#326D46" opacity="1.000000" stroke="none" 
	d="
M49.340134,32.894241 
	C49.016273,31.926258 49.010075,30.865091 49.008938,29.406040 
	C49.228596,30.272459 49.443195,31.536760 49.340134,32.894241 
z"/>
</svg>